<svg width="178" height="123" viewBox="0 0 178 123" fill="none" xmlns="http://www.w3.org/2000/svg">
<g clip-path="url(#clip0_131_195)">
<path opacity="0.1" d="M100.682 16.7452C89.2725 16.7605 78.2903 13.5231 67.7858 9.92671C57.2814 6.33032 46.8578 2.30309 35.6604 0.596558C28.459 -0.500388 20.2701 -0.399554 14.6409 3.58337C9.22228 7.41504 7.65318 13.7569 6.8961 19.6159C6.32677 24.0235 6.06423 28.6496 8.19656 32.6815C9.67714 35.4804 12.2109 37.7873 13.9967 40.4548C20.2304 49.7345 16.4817 61.5886 10.4235 71.0837C7.58296 75.5387 4.25549 79.8089 2.1079 84.519C-0.0396993 89.2292 -0.920412 94.5703 1.26992 99.2193C3.44041 103.827 8.34309 107.171 13.6045 109.455C24.289 114.103 36.7289 115.099 48.8345 115.483C75.6313 116.333 102.48 114.598 129.257 112.862C139.166 112.221 149.12 111.574 158.824 109.715C164.212 108.684 169.761 107.153 173.581 103.798C178.43 99.5386 179.423 92.5842 175.894 87.5853C169.976 79.2008 154.372 77.6196 150.129 68.5476C147.789 63.5533 149.807 57.8257 152.778 53.0116C159.152 42.6823 170.124 33.4301 170.309 21.877C170.435 13.9432 164.73 6.20351 156.208 2.75531C147.276 -0.85636 135.097 0.07253 128.839 6.80393C122.404 13.7385 110.756 16.7345 100.682 16.7452Z" fill="#7D3CFF"/>
<path d="M151.496 98.5968C151.496 98.5968 149.62 97.3578 147.761 98.2393C147.761 98.2393 148.334 99.3423 150.687 99.2385L151.496 98.5968Z" fill="#7D3CFF"/>
<path d="M151.734 98.6625C151.734 98.6625 152.305 100.838 150.873 102.318C150.873 102.318 150.013 101.422 150.873 99.2247L151.734 98.6625Z" fill="#7D3CFF"/>
<path d="M154.067 96.574C154.067 96.574 153.928 94.7238 149.753 95.338C149.753 95.338 149.733 96.5312 151.199 97.0965C152.664 97.6618 153.336 97.1851 154.067 96.574Z" fill="#7D3CFF"/>
<path d="M154.329 96.5618C154.329 96.5618 156.094 97.1286 154.52 101.047C154.52 101.047 153.355 100.788 153.146 99.2277C152.937 97.6679 153.557 97.1301 154.329 96.5618Z" fill="#7D3CFF"/>
<path d="M156.686 93.937C156.686 93.937 156.925 90.8922 152.659 91.2038C152.659 91.2038 152.354 93.9538 155.933 94.6688L156.686 93.937Z" fill="#7D3CFF"/>
<path d="M159.505 90.4996C159.505 90.4996 158.92 87.0483 154.656 88.0765C154.656 88.0765 154.64 91.0603 158.809 91.3215L159.505 90.4996Z" fill="#7D3CFF"/>
<path d="M161.566 86.9459C161.566 86.9459 160.586 83.5848 156.361 84.5901C156.361 84.5901 157.367 87.6135 161.285 87.5662L161.566 86.9459Z" fill="#7D3CFF"/>
<path d="M163.523 83.4748C163.523 83.4748 162.565 79.9869 158.485 81.0304C158.485 81.0304 159.847 84.3442 163.252 84.0646L163.523 83.4748Z" fill="#7D3CFF"/>
<path d="M164.783 80.1779C164.783 80.1779 164.047 75.9123 160.244 76.8565C160.244 76.8565 161.349 80.737 164.504 80.7997L164.783 80.1779Z" fill="#7D3CFF"/>
<path d="M165.966 76.1949C165.966 76.1949 165.082 71.8958 161.234 73.1394C161.234 73.1394 162.742 77.2032 165.693 76.7831L165.966 76.1949Z" fill="#7D3CFF"/>
<path d="M166.693 72.4885C166.693 72.4885 165.29 68.1878 162.315 68.3039C162.315 68.3039 163.748 72.846 166.444 73.3456L166.693 72.4885Z" fill="#7D3CFF"/>
<path d="M167.163 68.8708C167.163 68.8708 165.637 63.6947 163.216 64.0934C163.216 64.0934 164.272 68.0504 167.077 69.6775L167.163 68.8708Z" fill="#7D3CFF"/>
<path d="M167.428 64.5548C167.428 64.5548 165.997 60.2419 163.612 60.0692C163.612 60.0692 164.586 64.3134 167.381 65.6762L167.428 64.5548Z" fill="#7D3CFF"/>
<path d="M167.717 60.5276C167.717 60.5276 165.933 56.2101 164.359 56.1123C164.359 56.1123 165.134 60.3641 167.564 61.2365L167.717 60.5276Z" fill="#7D3CFF"/>
<path d="M167.914 56.7815C167.914 56.7815 166.816 52.0927 165.24 51.7031C165.24 51.7031 165.455 55.5394 167.755 57.1329L167.914 56.7815Z" fill="#7D3CFF"/>
<path d="M168.509 51.8743C168.509 51.8743 167.355 48.1358 166.078 47.5659C166.078 47.5659 166.329 51.9736 168.215 52.7879L168.509 51.8743Z" fill="#7D3CFF"/>
<path d="M169.002 48.6659L169.234 42.075C169.234 42.075 166.845 47.0434 168.83 49.8224L169.002 48.6659Z" fill="#7D3CFF"/>
<path d="M170.846 42.1102C170.846 42.1102 172.566 37.2977 172.983 37.0288C172.983 37.0288 169.61 40.1516 169.939 44.1681L170.846 42.1102Z" fill="#7D3CFF"/>
<path d="M156.802 93.9141C156.802 93.9141 159.827 93.5184 159.737 97.7977C159.737 97.7977 157.003 98.2439 156.11 94.704L156.802 93.9141Z" fill="#7D3CFF"/>
<path d="M159.648 90.3834C159.648 90.3834 163.144 90.3727 162.854 94.7529C162.854 94.7529 159.919 95.2784 158.951 91.2115L159.648 90.3834Z" fill="#7D3CFF"/>
<path d="M161.599 87.2286C161.599 87.2286 164.773 85.739 166.803 89.5844C166.803 89.5844 163.872 90.825 161.318 87.8504L161.599 87.2286Z" fill="#7D3CFF"/>
<path d="M163.593 83.5069C163.593 83.5069 166.842 81.9226 168.75 85.6779C168.75 85.6779 165.365 86.8451 163.324 84.1012L163.593 83.5069Z" fill="#7D3CFF"/>
<path d="M164.742 80.2711C164.742 80.2711 167.87 77.2812 170.365 80.3047C170.365 80.3047 167.17 82.7659 164.599 80.9372L164.742 80.2711Z" fill="#7D3CFF"/>
<path d="M165.789 76.0926C165.789 76.0926 168.935 73.037 171.411 76.2331C171.411 76.2331 167.88 78.7433 165.676 76.7343L165.789 76.0926Z" fill="#7D3CFF"/>
<path d="M166.377 72.3664C166.377 72.3664 168.801 68.5469 171.655 69.3994C171.655 69.3994 169.139 73.4434 166.404 73.2632L166.377 72.3664Z" fill="#7D3CFF"/>
<path d="M167.091 68.8463C167.091 68.8463 169.533 64.0369 171.844 64.8741C171.844 64.8741 170.083 68.5713 167.028 69.6576L167.091 68.8463Z" fill="#7D3CFF"/>
<path d="M167.261 64.3042C167.261 64.3042 169.771 60.5184 172.124 60.9813C172.124 60.9813 170.071 64.8206 167.016 65.3997L167.261 64.3042Z" fill="#7D3CFF"/>
<path d="M167.456 60.4436C167.456 60.4436 169.402 56.1948 170.983 56.1658C170.983 56.1658 170.049 60.384 167.587 61.1647L167.456 60.4436Z" fill="#7D3CFF"/>
<path d="M167.838 56.6898C167.838 56.6898 170 52.3876 171.626 52.3784C171.626 52.3784 170.519 56.0573 167.909 57.0672L167.838 56.6898Z" fill="#7D3CFF"/>
<path d="M168.163 52.1431C168.163 52.1431 169.781 48.5834 171.121 48.1801C171.121 48.1801 170.312 52.5189 168.341 53.0873L168.163 52.1431Z" fill="#7D3CFF"/>
<path d="M169.194 48.536L172.81 43.0223C172.81 43.0223 171.884 48.4612 168.666 49.5917L169.194 48.536Z" fill="#7D3CFF"/>
<path d="M171.676 42.5548C171.676 42.5548 175.878 39.652 176.031 39.183C176.031 39.183 173.894 43.2484 169.926 43.9665L171.676 42.5548Z" fill="#7D3CFF"/>
<path d="M171.928 41.2485C171.928 41.2485 176.753 36.6056 177.985 36.6102C177.985 36.6102 174.006 36.792 171.812 41.001L171.928 41.2485Z" fill="#7D3CFF"/>
<path d="M168.21 52.8321L168.385 52.8551C169.292 45.7524 170.614 41.5495 172.107 41.0346L172.049 40.8666C170.466 41.4166 169.135 45.5553 168.21 52.8321Z" fill="#444053"/>
<path d="M166.876 69.818L167.141 69.8394C167.198 69.1763 167.241 68.498 167.27 67.8212C167.523 61.9423 167.915 56.5431 168.431 52.496L168.279 52.3051C167.761 56.3613 167.257 61.9224 167.004 67.8105C166.975 68.4827 166.932 69.158 166.876 69.818Z" fill="#444053"/>
<path d="M146.545 101.985C146.59 101.966 151.266 99.8755 156.118 94.8919C158.961 91.973 161.323 88.6212 163.116 84.9613C165.36 80.3887 166.728 74.7695 167.186 69.3107L166.909 69.4406C165.879 81.6934 160.306 90.0656 155.875 94.6261C151.07 99.5654 146.447 101.634 146.401 101.654L146.545 101.985Z" fill="#444053"/>
<path d="M158.65 13.0212H11.985C11.6385 13.0212 11.3062 13.159 11.0612 13.4043C10.8161 13.6495 10.6785 13.9822 10.6785 14.329V18.1393H159.957V14.329C159.957 13.9822 159.819 13.6495 159.574 13.4043C159.329 13.159 158.997 13.0212 158.65 13.0212Z" fill="#3F3D56"/>
<path d="M10.6785 18.1393V103.884C10.6785 104.584 10.956 105.255 11.4501 105.749C11.9442 106.244 12.6143 106.521 13.313 106.521H157.322C158.021 106.521 158.691 106.244 159.185 105.749C159.679 105.255 159.957 104.584 159.957 103.884V18.1393H10.6785Z" fill="white"/>
<path opacity="0.8" d="M13.0428 16.1532C13.38 16.1532 13.6533 15.8796 13.6533 15.5421C13.6533 15.2046 13.38 14.931 13.0428 14.931C12.7056 14.931 12.4323 15.2046 12.4323 15.5421C12.4323 15.8796 12.7056 16.1532 13.0428 16.1532Z" fill="#FA5959"/>
<path opacity="0.8" d="M14.7218 16.1532C15.0589 16.1532 15.3323 15.8796 15.3323 15.5421C15.3323 15.2046 15.0589 14.931 14.7218 14.931C14.3846 14.931 14.1112 15.2046 14.1112 15.5421C14.1112 15.8796 14.3846 16.1532 14.7218 16.1532Z" fill="#FED253"/>
<path opacity="0.8" d="M16.4008 16.1532C16.738 16.1532 17.0114 15.8796 17.0114 15.5421C17.0114 15.2046 16.738 14.931 16.4008 14.931C16.0636 14.931 15.7903 15.2046 15.7903 15.5421C15.7903 15.8796 16.0636 16.1532 16.4008 16.1532Z" fill="#8CCF4D"/>
<path opacity="0.05" d="M144.527 32.4363H24.5547V85.2394H144.527V32.4363Z" fill="black"/>
<path d="M143.611 32.8365H25.4705V84.4755H143.611V32.8365Z" fill="#3F3D56"/>
<path d="M57.6767 46.1267C55.3522 46.1267 53.0799 46.8166 51.1471 48.1093C49.2143 49.4019 47.7079 51.2392 46.8184 53.3888C45.9288 55.5383 45.696 57.9037 46.1495 60.1856C46.603 62.4676 47.7224 64.5637 49.3661 66.2089C51.0098 67.8542 53.104 68.9746 55.3838 69.4285C57.6637 69.8824 60.0268 69.6494 62.1744 68.759C64.322 67.8687 66.1575 66.3608 67.449 64.4263C68.7404 62.4917 69.4297 60.2173 69.4297 57.8906C69.4297 56.3458 69.1257 54.816 68.5351 53.3888C67.9444 51.9615 67.0787 50.6647 65.9873 49.5723C64.896 48.4799 63.6003 47.6134 62.1744 47.0222C60.7485 46.431 59.2201 46.1267 57.6767 46.1267ZM59.7846 58.1733V63.7435H55.6299V58.1733C55.0549 57.7376 54.6312 57.1323 54.4185 56.4426C54.2057 55.753 54.2148 55.0139 54.4444 54.3296C54.6739 53.6454 55.1123 53.0506 55.6978 52.6293C56.2833 52.2079 56.9861 51.9812 57.7072 51.9812C58.4283 51.9812 59.1312 52.2079 59.7167 52.6293C60.3021 53.0506 60.7406 53.6454 60.9701 54.3296C61.1997 55.0139 61.2087 55.753 60.996 56.4426C60.7833 57.1323 60.3596 57.7376 59.7846 58.1733Z" fill="#7D3CFF"/>
<path opacity="0.05" d="M57.6767 46.1267C55.3522 46.1267 53.0799 46.8166 51.1471 48.1093C49.2143 49.4019 47.7079 51.2392 46.8184 53.3888C45.9288 55.5383 45.696 57.9037 46.1495 60.1856C46.603 62.4676 47.7224 64.5637 49.3661 66.2089C51.0098 67.8542 53.104 68.9746 55.3838 69.4285C57.6637 69.8824 60.0268 69.6494 62.1744 68.759C64.322 67.8687 66.1575 66.3608 67.449 64.4263C68.7404 62.4917 69.4297 60.2173 69.4297 57.8906C69.4297 56.3458 69.1257 54.816 68.5351 53.3888C67.9444 51.9615 67.0787 50.6647 65.9873 49.5723C64.896 48.4799 63.6003 47.6134 62.1744 47.0222C60.7485 46.431 59.2201 46.1267 57.6767 46.1267ZM59.7846 58.1733V63.7435H55.6299V58.1733C55.0549 57.7376 54.6312 57.1323 54.4185 56.4426C54.2057 55.753 54.2148 55.0139 54.4444 54.3296C54.6739 53.6454 55.1123 53.0506 55.6978 52.6293C56.2833 52.2079 56.9861 51.9812 57.7072 51.9812C58.4283 51.9812 59.1312 52.2079 59.7167 52.6293C60.3021 53.0506 60.7406 53.6454 60.9701 54.3296C61.1997 55.0139 61.2087 55.753 60.996 56.4426C60.7833 57.1323 60.3596 57.7376 59.7846 58.1733Z" fill="black"/>
<path d="M57.6767 42.7656C54.688 42.7656 51.7665 43.6527 49.2815 45.3147C46.7965 46.9766 44.8597 49.3388 43.7159 52.1026C42.5722 54.8663 42.273 57.9074 42.856 60.8414C43.4391 63.7754 44.8783 66.4704 46.9916 68.5856C49.1049 70.7009 51.7974 72.1414 54.7287 72.725C57.6599 73.3086 60.6982 73.0091 63.4594 71.8643C66.2206 70.7196 68.5806 68.7809 70.241 66.2936C71.9014 63.8064 72.7877 60.8821 72.7877 57.8906C72.7877 53.8792 71.1956 50.0321 68.3618 47.1956C65.5279 44.3591 61.6844 42.7656 57.6767 42.7656ZM60.386 58.2543V65.415H55.0437V58.2543C54.3042 57.6941 53.7591 56.9156 53.4855 56.0287C53.2118 55.1417 53.2234 54.1912 53.5186 53.3112C53.8137 52.4312 54.3776 51.6662 55.1305 51.1243C55.8835 50.5823 56.7874 50.2908 57.7148 50.2908C58.6423 50.2908 59.5462 50.5823 60.2992 51.1243C61.0521 51.6662 61.6159 52.4312 61.9111 53.3112C62.2063 54.1912 62.2179 55.1417 61.9442 56.0287C61.6706 56.9156 61.1255 57.6941 60.386 58.2543Z" fill="#7D3CFF"/>
<path d="M127.889 55.906H79.0458V61.1005H127.889V55.906Z" fill="white"/>
<path d="M127.889 65.3782H117.358V70.5727H127.889V65.3782Z" fill="#7D3CFF"/>
<path d="M83.8539 58.4253H82.9701L83.7562 57.6401C83.7702 57.6255 83.7781 57.6061 83.7781 57.5858C83.7781 57.5656 83.7702 57.5461 83.7562 57.5316C83.7491 57.5244 83.7406 57.5187 83.7313 57.5149C83.722 57.511 83.7121 57.509 83.702 57.509C83.6919 57.509 83.6819 57.511 83.6726 57.5149C83.6633 57.5187 83.6549 57.5244 83.6478 57.5316L82.8617 58.3184V57.4323C82.8617 57.412 82.8537 57.3926 82.8394 57.3783C82.825 57.3639 82.8056 57.3559 82.7854 57.3559C82.7653 57.3563 82.7461 57.3645 82.7319 57.3787C82.7176 57.3929 82.7095 57.4121 82.7091 57.4323V58.3184L81.9245 57.527C81.9174 57.5198 81.909 57.5142 81.8997 57.5103C81.8904 57.5064 81.8804 57.5044 81.8703 57.5044C81.8603 57.5044 81.8503 57.5064 81.841 57.5103C81.8317 57.5142 81.8232 57.5198 81.8162 57.527C81.8021 57.5415 81.7942 57.561 81.7942 57.5812C81.7942 57.6015 81.8021 57.6209 81.8162 57.6355L82.6022 58.4208H81.7169C81.6968 58.4211 81.6776 58.4293 81.6634 58.4436C81.6492 58.4578 81.641 58.477 81.6406 58.4971C81.6406 58.5174 81.6487 58.5368 81.663 58.5512C81.6773 58.5655 81.6967 58.5735 81.7169 58.5735H82.6022L81.8162 59.3603C81.8021 59.3749 81.7942 59.3943 81.7942 59.4146C81.7942 59.4348 81.8021 59.4543 81.8162 59.4688C81.8309 59.4826 81.8502 59.4902 81.8703 59.4902C81.8905 59.4902 81.9098 59.4826 81.9245 59.4688L82.7091 58.682V59.5666C82.7091 59.5869 82.7171 59.6063 82.7314 59.6206C82.7457 59.6349 82.7652 59.643 82.7854 59.643C82.8056 59.643 82.825 59.6349 82.8394 59.6206C82.8537 59.6063 82.8617 59.5869 82.8617 59.5666V58.682L83.6478 59.4688C83.6625 59.4826 83.6819 59.4902 83.702 59.4902C83.7221 59.4902 83.7415 59.4826 83.7562 59.4688C83.7702 59.4543 83.7781 59.4348 83.7781 59.4146C83.7781 59.3943 83.7702 59.3749 83.7562 59.3603L82.9701 58.5735H83.8539C83.8741 58.5735 83.8935 58.5655 83.9078 58.5512C83.9221 58.5368 83.9302 58.5174 83.9302 58.4971C83.929 58.4777 83.9204 58.4594 83.9063 58.4461C83.8921 58.4327 83.8733 58.4253 83.8539 58.4253Z" fill="#7D3CFF"/>
<path d="M87.0592 58.4253H86.1754L86.9615 57.6401C86.9756 57.6255 86.9834 57.6061 86.9834 57.5858C86.9834 57.5656 86.9756 57.5461 86.9615 57.5316C86.9544 57.5244 86.946 57.5187 86.9367 57.5149C86.9274 57.511 86.9174 57.509 86.9073 57.509C86.8972 57.509 86.8873 57.511 86.878 57.5149C86.8687 57.5187 86.8602 57.5244 86.8531 57.5316L86.067 58.3184V57.4323C86.067 57.412 86.059 57.3926 86.0447 57.3783C86.0304 57.3639 86.011 57.3559 85.9907 57.3559C85.9706 57.3563 85.9514 57.3645 85.9372 57.3787C85.923 57.3929 85.9148 57.4121 85.9144 57.4323V58.3184L85.1298 57.527C85.1228 57.5198 85.1143 57.5142 85.105 57.5103C85.0957 57.5064 85.0857 57.5044 85.0757 57.5044C85.0656 57.5044 85.0556 57.5064 85.0463 57.5103C85.037 57.5142 85.0286 57.5198 85.0215 57.527C85.0074 57.5415 84.9995 57.561 84.9995 57.5812C84.9995 57.6015 85.0074 57.6209 85.0215 57.6355L85.8076 58.4208H84.9223C84.9021 58.4211 84.883 58.4293 84.8687 58.4436C84.8545 58.4578 84.8463 58.477 84.8459 58.4971C84.8459 58.5174 84.854 58.5368 84.8683 58.5512C84.8826 58.5655 84.902 58.5735 84.9223 58.5735H85.8076L85.0215 59.3603C85.0074 59.3749 84.9995 59.3943 84.9995 59.4146C84.9995 59.4348 85.0074 59.4543 85.0215 59.4688C85.0362 59.4826 85.0555 59.4902 85.0757 59.4902C85.0958 59.4902 85.1151 59.4826 85.1298 59.4688L85.9144 58.682V59.5666C85.9144 59.5869 85.9224 59.6063 85.9368 59.6206C85.9511 59.6349 85.9705 59.643 85.9907 59.643C86.011 59.643 86.0304 59.6349 86.0447 59.6206C86.059 59.6063 86.067 59.5869 86.067 59.5666V58.682L86.8531 59.4688C86.8678 59.4826 86.8872 59.4902 86.9073 59.4902C86.9274 59.4902 86.9468 59.4826 86.9615 59.4688C86.9756 59.4543 86.9834 59.4348 86.9834 59.4146C86.9834 59.3943 86.9756 59.3749 86.9615 59.3603L86.1754 58.5735H87.0592C87.0794 58.5735 87.0988 58.5655 87.1131 58.5512C87.1275 58.5368 87.1355 58.5174 87.1355 58.4971C87.1343 58.4777 87.1258 58.4594 87.1116 58.4461C87.0974 58.4327 87.0787 58.4253 87.0592 58.4253Z" fill="#7D3CFF"/>
<path d="M90.2645 58.4253H89.3807L90.1668 57.6401C90.1809 57.6255 90.1888 57.6061 90.1888 57.5858C90.1888 57.5656 90.1809 57.5461 90.1668 57.5316C90.1597 57.5244 90.1513 57.5187 90.142 57.5149C90.1327 57.511 90.1227 57.509 90.1126 57.509C90.1025 57.509 90.0926 57.511 90.0833 57.5149C90.074 57.5187 90.0655 57.5244 90.0584 57.5316L89.2724 58.3184V57.4323C89.2724 57.412 89.2643 57.3926 89.25 57.3783C89.2357 57.3639 89.2163 57.3559 89.196 57.3559C89.1759 57.3563 89.1567 57.3645 89.1425 57.3787C89.1283 57.3929 89.1201 57.4121 89.1197 57.4323V58.3184L88.3352 57.527C88.3281 57.5198 88.3196 57.5142 88.3103 57.5103C88.301 57.5064 88.2911 57.5044 88.281 57.5044C88.2709 57.5044 88.2609 57.5064 88.2516 57.5103C88.2423 57.5142 88.2339 57.5198 88.2268 57.527C88.2127 57.5415 88.2048 57.561 88.2048 57.5812C88.2048 57.6015 88.2127 57.6209 88.2268 57.6355L89.0129 58.4208H88.1276C88.1075 58.4211 88.0883 58.4293 88.074 58.4436C88.0598 58.4578 88.0517 58.477 88.0513 58.4971C88.0513 58.5174 88.0593 58.5368 88.0736 58.5512C88.0879 58.5655 88.1073 58.5735 88.1276 58.5735H89.0129L88.2268 59.3603C88.2127 59.3749 88.2048 59.3943 88.2048 59.4146C88.2048 59.4348 88.2127 59.4543 88.2268 59.4688C88.2415 59.4826 88.2609 59.4902 88.281 59.4902C88.3011 59.4902 88.3205 59.4826 88.3352 59.4688L89.1197 58.682V59.5666C89.1197 59.5869 89.1278 59.6063 89.1421 59.6206C89.1564 59.6349 89.1758 59.643 89.196 59.643C89.2163 59.643 89.2357 59.6349 89.25 59.6206C89.2643 59.6063 89.2724 59.5869 89.2724 59.5666V58.682L90.0584 59.4688C90.0731 59.4826 90.0925 59.4902 90.1126 59.4902C90.1327 59.4902 90.1521 59.4826 90.1668 59.4688C90.1809 59.4543 90.1888 59.4348 90.1888 59.4146C90.1888 59.3943 90.1809 59.3749 90.1668 59.3603L89.3807 58.5735H90.2645C90.2847 58.5735 90.3041 58.5655 90.3185 58.5512C90.3328 58.5368 90.3408 58.5174 90.3408 58.4971C90.3397 58.4777 90.3311 58.4594 90.3169 58.4461C90.3027 58.4327 90.284 58.4253 90.2645 58.4253Z" fill="#7D3CFF"/>
<path d="M93.4699 58.4253H92.5862L93.3722 57.6401C93.3863 57.6255 93.3942 57.6061 93.3942 57.5858C93.3942 57.5656 93.3863 57.5461 93.3722 57.5316C93.3651 57.5244 93.3567 57.5187 93.3474 57.5149C93.3381 57.511 93.3281 57.509 93.318 57.509C93.308 57.509 93.298 57.511 93.2887 57.5149C93.2794 57.5187 93.271 57.5244 93.2639 57.5316L92.4778 58.3184V57.4323C92.4778 57.412 92.4697 57.3926 92.4554 57.3783C92.4411 57.3639 92.4217 57.3559 92.4015 57.3559C92.3814 57.3563 92.3622 57.3645 92.3479 57.3787C92.3337 57.3929 92.3256 57.4121 92.3252 57.4323V58.3184L91.5406 57.527C91.5335 57.5198 91.5251 57.5142 91.5158 57.5103C91.5065 57.5064 91.4965 57.5044 91.4864 57.5044C91.4763 57.5044 91.4664 57.5064 91.4571 57.5103C91.4478 57.5142 91.4393 57.5198 91.4322 57.527C91.4182 57.5415 91.4103 57.561 91.4103 57.5812C91.4103 57.6015 91.4182 57.6209 91.4322 57.6355L92.2183 58.4208H91.333C91.3129 58.4211 91.2937 58.4293 91.2795 58.4436C91.2653 58.4578 91.2571 58.477 91.2567 58.4971C91.2567 58.5174 91.2648 58.5368 91.2791 58.5512C91.2934 58.5655 91.3128 58.5735 91.333 58.5735H92.2183L91.4322 59.3603C91.4182 59.3749 91.4103 59.3943 91.4103 59.4146C91.4103 59.4348 91.4182 59.4543 91.4322 59.4688C91.4469 59.4826 91.4663 59.4902 91.4864 59.4902C91.5065 59.4902 91.5259 59.4826 91.5406 59.4688L92.3252 58.682V59.5666C92.3252 59.5869 92.3332 59.6063 92.3475 59.6206C92.3618 59.6349 92.3812 59.643 92.4015 59.643C92.4217 59.643 92.4411 59.6349 92.4554 59.6206C92.4697 59.6063 92.4778 59.5869 92.4778 59.5666V58.682L93.2639 59.4688C93.2786 59.4826 93.2979 59.4902 93.318 59.4902C93.3382 59.4902 93.3575 59.4826 93.3722 59.4688C93.3863 59.4543 93.3942 59.4348 93.3942 59.4146C93.3942 59.3943 93.3863 59.3749 93.3722 59.3603L92.5862 58.5735H93.4699C93.4902 58.5735 93.5096 58.5655 93.5239 58.5512C93.5382 58.5368 93.5462 58.5174 93.5462 58.4971C93.5451 58.4777 93.5365 58.4594 93.5223 58.4461C93.5081 58.4327 93.4894 58.4253 93.4699 58.4253Z" fill="#7D3CFF"/>
<path d="M96.6754 58.4253H95.7916L96.5777 57.6401C96.5918 57.6255 96.5996 57.6061 96.5996 57.5858C96.5996 57.5656 96.5918 57.5461 96.5777 57.5316C96.5706 57.5244 96.5621 57.5187 96.5528 57.5149C96.5435 57.511 96.5336 57.509 96.5235 57.509C96.5134 57.509 96.5034 57.511 96.4941 57.5149C96.4848 57.5187 96.4764 57.5244 96.4693 57.5316L95.6832 58.3184V57.4323C95.6832 57.412 95.6752 57.3926 95.6609 57.3783C95.6466 57.3639 95.6272 57.3559 95.6069 57.3559C95.5868 57.3563 95.5676 57.3645 95.5534 57.3787C95.5392 57.3929 95.531 57.4121 95.5306 57.4323V58.3184L94.7461 57.527C94.739 57.5198 94.7305 57.5142 94.7212 57.5103C94.7119 57.5064 94.7019 57.5044 94.6919 57.5044C94.6818 57.5044 94.6718 57.5064 94.6625 57.5103C94.6532 57.5142 94.6448 57.5198 94.6377 57.527C94.6236 57.5415 94.6157 57.561 94.6157 57.5812C94.6157 57.6015 94.6236 57.6209 94.6377 57.6355L95.4238 58.4208H94.5385C94.5184 58.4211 94.4992 58.4293 94.4849 58.4436C94.4707 58.4578 94.4625 58.477 94.4622 58.4971C94.4622 58.5174 94.4702 58.5368 94.4845 58.5512C94.4988 58.5655 94.5182 58.5735 94.5385 58.5735H95.4238L94.6377 59.3603C94.6236 59.3749 94.6157 59.3943 94.6157 59.4146C94.6157 59.4348 94.6236 59.4543 94.6377 59.4688C94.6524 59.4826 94.6717 59.4902 94.6919 59.4902C94.712 59.4902 94.7314 59.4826 94.7461 59.4688L95.5306 58.682V59.5666C95.5306 59.5869 95.5386 59.6063 95.553 59.6206C95.5673 59.6349 95.5867 59.643 95.6069 59.643C95.6272 59.643 95.6466 59.6349 95.6609 59.6206C95.6752 59.6063 95.6832 59.5869 95.6832 59.5666V58.682L96.4693 59.4688C96.484 59.4826 96.5034 59.4902 96.5235 59.4902C96.5436 59.4902 96.563 59.4826 96.5777 59.4688C96.5918 59.4543 96.5996 59.4348 96.5996 59.4146C96.5996 59.3943 96.5918 59.3749 96.5777 59.3603L95.7916 58.5735H96.6754C96.6956 58.5735 96.715 58.5655 96.7293 58.5512C96.7436 58.5368 96.7517 58.5174 96.7517 58.4971C96.7505 58.4777 96.742 58.4594 96.7278 58.4461C96.7136 58.4327 96.6948 58.4253 96.6754 58.4253Z" fill="#7D3CFF"/>
<path d="M99.8807 58.4253H98.9969L99.783 57.6401C99.7971 57.6255 99.805 57.6061 99.805 57.5858C99.805 57.5656 99.7971 57.5461 99.783 57.5316C99.7759 57.5244 99.7675 57.5187 99.7582 57.5149C99.7489 57.511 99.7389 57.509 99.7288 57.509C99.7187 57.509 99.7088 57.511 99.6995 57.5149C99.6902 57.5187 99.6817 57.5244 99.6746 57.5316L98.8886 58.3184V57.4323C98.8886 57.412 98.8805 57.3926 98.8662 57.3783C98.8519 57.3639 98.8325 57.3559 98.8123 57.3559C98.7921 57.3563 98.7729 57.3645 98.7587 57.3787C98.7445 57.3929 98.7363 57.4121 98.7359 57.4323V58.3184L97.9514 57.527C97.9443 57.5198 97.9358 57.5142 97.9265 57.5103C97.9172 57.5064 97.9073 57.5044 97.8972 57.5044C97.8871 57.5044 97.8771 57.5064 97.8678 57.5103C97.8585 57.5142 97.8501 57.5198 97.843 57.527C97.8289 57.5415 97.821 57.561 97.821 57.5812C97.821 57.6015 97.8289 57.6209 97.843 57.6355L98.6291 58.4208H97.7438C97.7237 58.4211 97.7045 58.4293 97.6903 58.4436C97.676 58.4578 97.6679 58.477 97.6675 58.4971C97.6675 58.5174 97.6755 58.5368 97.6898 58.5512C97.7041 58.5655 97.7236 58.5735 97.7438 58.5735H98.6291L97.843 59.3603C97.8289 59.3749 97.821 59.3943 97.821 59.4146C97.821 59.4348 97.8289 59.4543 97.843 59.4688C97.8577 59.4826 97.8771 59.4902 97.8972 59.4902C97.9173 59.4902 97.9367 59.4826 97.9514 59.4688L98.7359 58.682V59.5666C98.7359 59.5869 98.744 59.6063 98.7583 59.6206C98.7726 59.6349 98.792 59.643 98.8123 59.643C98.8325 59.643 98.8519 59.6349 98.8662 59.6206C98.8805 59.6063 98.8886 59.5869 98.8886 59.5666V58.682L99.6746 59.4688C99.6893 59.4826 99.7087 59.4902 99.7288 59.4902C99.7489 59.4902 99.7683 59.4826 99.783 59.4688C99.7971 59.4543 99.805 59.4348 99.805 59.4146C99.805 59.3943 99.7971 59.3749 99.783 59.3603L98.9969 58.5735H99.8807C99.9009 58.5735 99.9204 58.5655 99.9347 58.5512C99.949 58.5368 99.957 58.5174 99.957 58.4971C99.9559 58.4777 99.9473 58.4594 99.9331 58.4461C99.9189 58.4327 99.9002 58.4253 99.8807 58.4253Z" fill="#7D3CFF"/>
<path d="M103.086 58.4253H102.202L102.988 57.6401C103.002 57.6255 103.01 57.6061 103.01 57.5858C103.01 57.5656 103.002 57.5461 102.988 57.5316C102.981 57.5244 102.973 57.5187 102.963 57.5149C102.954 57.511 102.944 57.509 102.934 57.509C102.924 57.509 102.914 57.511 102.905 57.5149C102.895 57.5187 102.887 57.5244 102.88 57.5316L102.094 58.3184V57.4323C102.094 57.412 102.086 57.3926 102.072 57.3783C102.057 57.3639 102.038 57.3559 102.018 57.3559C101.997 57.3563 101.978 57.3645 101.964 57.3787C101.95 57.3929 101.942 57.4121 101.941 57.4323V58.3184L101.157 57.527C101.15 57.5198 101.141 57.5142 101.132 57.5103C101.123 57.5064 101.113 57.5044 101.103 57.5044C101.092 57.5044 101.082 57.5064 101.073 57.5103C101.064 57.5142 101.055 57.5198 101.048 57.527C101.034 57.5415 101.026 57.561 101.026 57.5812C101.026 57.6015 101.034 57.6209 101.048 57.6355L101.834 58.4208H100.949C100.929 58.4211 100.91 58.4293 100.896 58.4436C100.881 58.4578 100.873 58.477 100.873 58.4971C100.873 58.5174 100.881 58.5368 100.895 58.5512C100.909 58.5655 100.929 58.5735 100.949 58.5735H101.834L101.048 59.3603C101.034 59.3749 101.026 59.3943 101.026 59.4146C101.026 59.4348 101.034 59.4543 101.048 59.4688C101.063 59.4826 101.082 59.4902 101.103 59.4902C101.123 59.4902 101.142 59.4826 101.157 59.4688L101.941 58.682V59.5666C101.941 59.5869 101.949 59.6063 101.964 59.6206C101.978 59.6349 101.997 59.643 102.018 59.643C102.038 59.643 102.057 59.6349 102.072 59.6206C102.086 59.6063 102.094 59.5869 102.094 59.5666V58.682L102.88 59.4688C102.895 59.4826 102.914 59.4902 102.934 59.4902C102.954 59.4902 102.974 59.4826 102.988 59.4688C103.002 59.4543 103.01 59.4348 103.01 59.4146C103.01 59.3943 103.002 59.3749 102.988 59.3603L102.202 58.5735H103.086C103.106 58.5735 103.126 58.5655 103.14 58.5512C103.154 58.5368 103.162 58.5174 103.162 58.4971C103.161 58.4777 103.153 58.4594 103.138 58.4461C103.124 58.4327 103.105 58.4253 103.086 58.4253Z" fill="#7D3CFF"/>
<path d="M106.291 58.4253H105.408L106.194 57.6401C106.208 57.6255 106.216 57.6061 106.216 57.5858C106.216 57.5656 106.208 57.5461 106.194 57.5316C106.187 57.5244 106.178 57.5187 106.169 57.5149C106.16 57.511 106.15 57.509 106.14 57.509C106.13 57.509 106.12 57.511 106.11 57.5149C106.101 57.5187 106.092 57.5244 106.085 57.5316L105.299 58.3184V57.4323C105.299 57.412 105.291 57.3926 105.277 57.3783C105.263 57.3639 105.243 57.3559 105.223 57.3559C105.203 57.3563 105.184 57.3645 105.169 57.3787C105.155 57.3929 105.147 57.4121 105.147 57.4323V58.3184L104.362 57.527C104.355 57.5198 104.347 57.5142 104.337 57.5103C104.328 57.5064 104.318 57.5044 104.308 57.5044C104.298 57.5044 104.288 57.5064 104.279 57.5103C104.269 57.5142 104.261 57.5198 104.254 57.527C104.24 57.5415 104.232 57.561 104.232 57.5812C104.232 57.6015 104.24 57.6209 104.254 57.6355L105.04 58.4208H104.155C104.134 58.4211 104.115 58.4293 104.101 58.4436C104.087 58.4578 104.079 58.477 104.078 58.4971C104.078 58.5174 104.086 58.5368 104.101 58.5512C104.115 58.5655 104.134 58.5735 104.155 58.5735H105.04L104.254 59.3603C104.24 59.3749 104.232 59.3943 104.232 59.4146C104.232 59.4348 104.24 59.4543 104.254 59.4688C104.268 59.4826 104.288 59.4902 104.308 59.4902C104.328 59.4902 104.347 59.4826 104.362 59.4688L105.147 58.682V59.5666C105.147 59.5869 105.155 59.6063 105.169 59.6206C105.183 59.6349 105.203 59.643 105.223 59.643C105.243 59.643 105.263 59.6349 105.277 59.6206C105.291 59.6063 105.299 59.5869 105.299 59.5666V58.682L106.085 59.4688C106.1 59.4826 106.119 59.4902 106.14 59.4902C106.16 59.4902 106.179 59.4826 106.194 59.4688C106.208 59.4543 106.216 59.4348 106.216 59.4146C106.216 59.3943 106.208 59.3749 106.194 59.3603L105.408 58.5735H106.291C106.312 58.5735 106.331 58.5655 106.345 58.5512C106.36 58.5368 106.368 58.5174 106.368 58.4971C106.367 58.4777 106.358 58.4594 106.344 58.4461C106.33 58.4327 106.311 58.4253 106.291 58.4253Z" fill="#7D3CFF"/>
<path d="M109.497 58.4253H108.613L109.399 57.6401C109.413 57.6255 109.421 57.6061 109.421 57.5858C109.421 57.5656 109.413 57.5461 109.399 57.5316C109.392 57.5244 109.384 57.5187 109.374 57.5149C109.365 57.511 109.355 57.509 109.345 57.509C109.335 57.509 109.325 57.511 109.316 57.5149C109.306 57.5187 109.298 57.5244 109.291 57.5316L108.505 58.3184V57.4323C108.505 57.412 108.497 57.3926 108.482 57.3783C108.468 57.3639 108.449 57.3559 108.428 57.3559C108.408 57.3563 108.389 57.3645 108.375 57.3787C108.361 57.3929 108.352 57.4121 108.352 57.4323V58.3184L107.567 57.527C107.56 57.5198 107.552 57.5142 107.543 57.5103C107.533 57.5064 107.523 57.5044 107.513 57.5044C107.503 57.5044 107.493 57.5064 107.484 57.5103C107.475 57.5142 107.466 57.5198 107.459 57.527C107.445 57.5415 107.437 57.561 107.437 57.5812C107.437 57.6015 107.445 57.6209 107.459 57.6355L108.245 58.4208H107.36C107.34 58.4211 107.321 58.4293 107.306 58.4436C107.292 58.4578 107.284 58.477 107.284 58.4971C107.284 58.5174 107.292 58.5368 107.306 58.5512C107.32 58.5655 107.34 58.5735 107.36 58.5735H108.245L107.459 59.3603C107.445 59.3749 107.437 59.3943 107.437 59.4146C107.437 59.4348 107.445 59.4543 107.459 59.4688C107.474 59.4826 107.493 59.4902 107.513 59.4902C107.533 59.4902 107.553 59.4826 107.567 59.4688L108.352 58.682V59.5666C108.352 59.5869 108.36 59.6063 108.374 59.6206C108.389 59.6349 108.408 59.643 108.428 59.643C108.449 59.643 108.468 59.6349 108.482 59.6206C108.497 59.6063 108.505 59.5869 108.505 59.5666V58.682L109.291 59.4688C109.305 59.4826 109.325 59.4902 109.345 59.4902C109.365 59.4902 109.384 59.4826 109.399 59.4688C109.413 59.4543 109.421 59.4348 109.421 59.4146C109.421 59.3943 109.413 59.3749 109.399 59.3603L108.613 58.5735H109.497C109.517 58.5735 109.536 58.5655 109.551 58.5512C109.565 58.5368 109.573 58.5174 109.573 58.4971C109.572 58.4777 109.563 58.4594 109.549 58.4461C109.535 58.4327 109.516 58.4253 109.497 58.4253Z" fill="#7D3CFF"/>
<path d="M112.702 58.4253H111.818L112.604 57.6401C112.619 57.6255 112.626 57.6061 112.626 57.5858C112.626 57.5656 112.619 57.5461 112.604 57.5316C112.597 57.5244 112.589 57.5187 112.58 57.5149C112.57 57.511 112.56 57.509 112.55 57.509C112.54 57.509 112.53 57.511 112.521 57.5149C112.512 57.5187 112.503 57.5244 112.496 57.5316L111.71 58.3184V57.4323C111.71 57.412 111.702 57.3926 111.688 57.3783C111.673 57.3639 111.654 57.3559 111.634 57.3559C111.614 57.3563 111.594 57.3645 111.58 57.3787C111.566 57.3929 111.558 57.4121 111.557 57.4323V58.3184L110.773 57.527C110.766 57.5198 110.757 57.5142 110.748 57.5103C110.739 57.5064 110.729 57.5044 110.719 57.5044C110.709 57.5044 110.699 57.5064 110.689 57.5103C110.68 57.5142 110.672 57.5198 110.664 57.527C110.65 57.5415 110.642 57.561 110.642 57.5812C110.642 57.6015 110.65 57.6209 110.664 57.6355L111.45 58.4208H110.565C110.545 58.4211 110.526 58.4293 110.512 58.4436C110.497 58.4578 110.489 58.477 110.489 58.4971C110.489 58.5174 110.497 58.5368 110.511 58.5512C110.526 58.5655 110.545 58.5735 110.565 58.5735H111.45L110.664 59.3603C110.65 59.3749 110.642 59.3943 110.642 59.4146C110.642 59.4348 110.65 59.4543 110.664 59.4688C110.679 59.4826 110.698 59.4902 110.719 59.4902C110.739 59.4902 110.758 59.4826 110.773 59.4688L111.557 58.682V59.5666C111.557 59.5869 111.565 59.6063 111.58 59.6206C111.594 59.6349 111.613 59.643 111.634 59.643C111.654 59.643 111.673 59.6349 111.688 59.6206C111.702 59.6063 111.71 59.5869 111.71 59.5666V58.682L112.496 59.4688C112.511 59.4826 112.53 59.4902 112.55 59.4902C112.57 59.4902 112.59 59.4826 112.604 59.4688C112.619 59.4543 112.626 59.4348 112.626 59.4146C112.626 59.3943 112.619 59.3749 112.604 59.3603L111.818 58.5735H112.702C112.722 58.5735 112.742 58.5655 112.756 58.5512C112.77 58.5368 112.778 58.5174 112.778 58.4971C112.777 58.4777 112.769 58.4594 112.755 58.4461C112.74 58.4327 112.722 58.4253 112.702 58.4253Z" fill="#7D3CFF"/>
<path d="M115.907 58.4253H115.024L115.81 57.6401C115.824 57.6255 115.832 57.6061 115.832 57.5858C115.832 57.5656 115.824 57.5461 115.81 57.5316C115.803 57.5244 115.794 57.5187 115.785 57.5149C115.776 57.511 115.766 57.509 115.756 57.509C115.745 57.509 115.735 57.511 115.726 57.5149C115.717 57.5187 115.708 57.5244 115.701 57.5316L114.915 58.3184V57.4323C114.915 57.412 114.907 57.3926 114.893 57.3783C114.879 57.3639 114.859 57.3559 114.839 57.3559C114.819 57.3563 114.8 57.3645 114.785 57.3787C114.771 57.3929 114.763 57.4121 114.763 57.4323V58.3184L113.978 57.527C113.971 57.5198 113.963 57.5142 113.953 57.5103C113.944 57.5064 113.934 57.5044 113.924 57.5044C113.914 57.5044 113.904 57.5064 113.895 57.5103C113.885 57.5142 113.877 57.5198 113.87 57.527C113.856 57.5415 113.848 57.561 113.848 57.5812C113.848 57.6015 113.856 57.6209 113.87 57.6355L114.656 58.4208H113.771C113.75 58.4211 113.731 58.4293 113.717 58.4436C113.703 58.4578 113.695 58.477 113.694 58.4971C113.694 58.5174 113.702 58.5368 113.717 58.5512C113.731 58.5655 113.75 58.5735 113.771 58.5735H114.656L113.87 59.3603C113.856 59.3749 113.848 59.3943 113.848 59.4146C113.848 59.4348 113.856 59.4543 113.87 59.4688C113.884 59.4826 113.904 59.4902 113.924 59.4902C113.944 59.4902 113.963 59.4826 113.978 59.4688L114.763 58.682V59.5666C114.763 59.5869 114.771 59.6063 114.785 59.6206C114.799 59.6349 114.819 59.643 114.839 59.643C114.859 59.643 114.879 59.6349 114.893 59.6206C114.907 59.6063 114.915 59.5869 114.915 59.5666V58.682L115.701 59.4688C115.716 59.4826 115.735 59.4902 115.756 59.4902C115.776 59.4902 115.795 59.4826 115.81 59.4688C115.824 59.4543 115.832 59.4348 115.832 59.4146C115.832 59.3943 115.824 59.3749 115.81 59.3603L115.024 58.5735H115.907C115.928 58.5735 115.947 58.5655 115.961 58.5512C115.976 58.5368 115.984 58.5174 115.984 58.4971C115.983 58.4777 115.974 58.4594 115.96 58.4461C115.946 58.4327 115.927 58.4253 115.907 58.4253Z" fill="#7D3CFF"/>
<path d="M140.481 77.0108C140.476 76.8261 140.453 76.6424 140.412 76.4623C140.274 75.9459 139.965 75.3211 139.455 75.1653C138.928 75.004 138.42 74.7889 137.938 74.5236C137.846 72.8858 138.222 71.2098 137.812 69.6225C137.66 69.0419 137.408 68.4858 137.341 67.8915C137.257 67.152 137.458 66.3637 137.164 65.6823C136.932 65.1445 136.422 64.7657 135.874 64.567C135.326 64.3684 134.735 64.315 134.154 64.2615C133.421 64.2019 131.049 63.9208 130.222 64.5762C130.165 64.6206 130.113 64.6719 130.069 64.729C130.051 64.7542 130.035 64.7807 130.02 64.8084L130.013 64.8207C129.996 64.8525 129.982 64.8857 129.972 64.92C129.96 64.9574 129.951 64.9957 129.946 65.0345C129.946 65.0468 129.946 65.059 129.946 65.0712C129.946 65.0834 129.946 65.1247 129.946 65.1522V65.1934C129.946 65.2209 129.946 65.2484 129.946 65.2775C129.946 65.3065 129.946 65.2989 129.946 65.3095C129.956 65.447 129.976 65.5845 129.976 65.7205C129.978 65.7882 129.972 65.8559 129.958 65.9222C129.907 66.1024 129.821 66.2706 129.704 66.4172L129.677 66.4569C129.66 66.4814 129.643 66.5043 129.628 66.5287C129.613 66.5532 129.601 66.5715 129.588 66.5929C129.576 66.6143 129.564 66.628 129.553 66.6479C129.539 66.6731 129.525 66.6991 129.514 66.7258C129.514 66.7411 129.497 66.7548 129.491 66.7701C129.472 66.8114 129.456 66.8544 129.445 66.8984C129.409 67.0312 129.406 67.1706 129.436 67.3048C129.477 67.4762 129.548 67.6391 129.645 67.7861C129.683 67.8487 129.724 67.9098 129.767 67.9709L129.874 68.1161C129.854 68.2578 129.843 68.4007 129.842 68.5439C129.842 69.0223 129.95 69.4944 130.159 69.9247C130.368 70.355 130.672 70.7323 131.048 71.028C131.108 71.6732 131.101 72.323 131.028 72.9668C131.014 73.1012 130.997 73.2372 130.979 73.3716C130.961 73.5061 130.947 73.5947 130.929 73.7062C130.705 73.7382 130.478 73.721 130.262 73.6558C130.162 73.6113 130.06 73.572 129.956 73.5382C129.512 73.4266 129.059 73.8697 128.619 73.7353C128.619 73.7566 128.607 73.7765 128.599 73.7964C128.508 73.7393 128.402 73.7081 128.294 73.7062C128.033 73.694 127.821 73.5046 127.632 73.3258L127.05 72.7773C127.012 72.7438 126.978 72.7058 126.949 72.6643C126.918 72.6049 126.894 72.5417 126.879 72.4764C126.781 72.1601 126.545 71.908 126.316 71.6682C126.272 71.6135 126.215 71.5717 126.149 71.5475C126.124 71.5437 126.098 71.5437 126.073 71.5475C126.058 71.5261 126.041 71.5057 126.023 71.4864C125.983 71.441 125.941 71.3981 125.896 71.358C125.618 71.1014 125.591 70.8814 125.35 70.5941C125.139 70.3202 124.949 70.0318 124.779 69.7309C124.759 69.5705 124.731 69.4055 124.698 69.239C124.621 68.8577 124.509 68.4844 124.364 68.1237L124.058 67.4469L124.023 67.482C123.802 67.152 123.565 66.9718 123.353 67.0145C122.998 67.0879 122.822 67.7784 122.878 68.6814L123.001 69.598C123.001 69.6209 123.011 69.6439 123.017 69.6668C122.995 69.7754 122.984 69.8859 122.984 69.9968C122.984 70.1251 123.103 70.2198 123.165 70.3344C123.266 70.4896 123.319 70.6706 123.318 70.8554C123.31 70.9211 123.291 70.9837 123.288 71.0479C123.296 71.1914 123.346 71.3294 123.431 71.4451L124.194 72.7284L124.347 72.9973L124.356 73.0096C124.404 73.1034 124.474 73.1841 124.561 73.2448C124.59 73.5662 124.676 73.8799 124.812 74.1722C124.838 74.2303 124.867 74.2852 124.898 74.3402C125.103 74.6779 125.345 74.9919 125.618 75.2768L125.982 75.6847C126.34 76.085 126.699 76.4868 127.088 76.8565C127.228 77.0049 127.396 77.1229 127.583 77.2033C127.674 77.2399 127.774 77.2517 127.871 77.2375C127.969 77.2233 128.061 77.1836 128.138 77.1223C128.138 77.3118 128.138 77.5012 128.138 77.6907C128.195 77.6942 128.25 77.7127 128.297 77.7445C128.344 77.7762 128.382 77.8199 128.406 77.8711C128.431 77.9224 128.441 77.9792 128.437 78.0359C128.432 78.0925 128.412 78.1469 128.38 78.1933C128.059 79.0168 127.735 79.8479 127.25 80.5858C127.593 80.7888 127.91 81.0313 128.196 81.3084C128.382 81.5144 128.547 81.738 128.689 81.9761C128.703 82.0892 128.714 82.2007 128.72 82.3122C128.833 84.1333 128.129 85.9407 127.499 87.6762C127.317 88.1682 127.119 88.6831 127.134 89.1949C127.014 89.2687 126.9 89.3509 126.792 89.4408C126.917 89.7678 126.868 90.0596 126.855 90.4094C126.85 90.6192 126.807 90.8263 126.728 91.0205C126.662 91.1552 126.588 91.2862 126.508 91.4132C126.113 92.1114 126.026 92.941 125.946 93.7385C125.899 94.2197 126.085 94.8079 125.867 95.2388C125.49 95.9782 125.156 96.7665 125.104 97.5885C125.102 97.7734 125.079 97.9575 125.034 98.1369C124.986 98.2897 124.902 98.4196 124.86 98.5693C124.816 98.7699 124.805 98.9764 124.829 99.1804C124.858 99.9127 124.749 100.644 124.509 101.336C124.318 101.882 124.107 102.465 124.257 103.026C123.889 103.413 123.661 103.913 123.611 104.445C123.607 104.581 123.591 104.717 123.562 104.85C123.516 104.986 123.454 105.117 123.379 105.24C123.072 105.8 122.928 106.435 122.964 107.073C122.506 107.695 122.277 108.462 122.141 109.224C122.005 109.986 121.946 110.763 121.772 111.516C121.54 112.512 121.12 113.519 121.038 114.539C120.543 114.855 120.329 115.468 120.235 116.047C120.14 116.626 120.125 117.234 119.882 117.769C119.757 118.047 119.577 118.296 119.458 118.58C119.374 118.806 119.313 119.04 119.275 119.278C119.201 119.651 119.137 120.067 119.227 120.424C119.098 120.561 118.947 120.677 118.78 120.765C118.805 120.67 118.824 120.575 118.841 120.479C118.447 120.837 117.733 120.711 117.419 121.141C117.324 121.279 117.287 121.449 117.316 121.614C117.344 121.779 117.436 121.927 117.571 122.025C117.67 122.085 117.776 122.131 117.887 122.161C118.65 122.406 119.435 122.652 120.22 122.522C120.312 122.512 120.402 122.483 120.484 122.438C120.586 122.363 120.67 122.266 120.729 122.154C120.847 121.967 120.964 121.781 121.08 121.594C121.362 121.678 121.648 121.745 121.937 121.795C121.966 122.039 121.987 122.284 121.998 122.528C122.15 122.559 122.355 122.568 122.427 122.426C122.448 122.372 122.457 122.314 122.453 122.256C122.453 122.148 122.468 122.004 122.477 121.857H122.508C122.973 121.876 123.437 121.782 123.858 121.584C123.695 120.23 124.234 118.907 124.701 117.627C125.194 116.279 125.617 114.907 126.043 113.535C126.348 112.57 126.685 111.635 126.984 110.668C127.361 109.446 127.739 108.223 128.119 107.001C128.283 106.463 128.45 105.932 128.639 105.397C129.037 104.315 129.51 103.262 130.054 102.245C130.207 101.956 130.359 101.671 130.484 101.371C130.637 101.006 130.745 100.624 130.867 100.247C131.134 99.4725 131.454 98.718 131.826 97.9888C131.837 97.9689 131.844 97.9506 131.855 97.9322C131.979 98.4379 132.102 98.9512 132.185 99.46C132.296 100.084 132.305 100.722 132.211 101.348C132.137 101.775 131.999 102.196 132.015 102.629C132.038 103.226 132.357 103.768 132.514 104.344C132.616 104.775 132.673 105.216 132.685 105.658C132.728 106.346 133.101 107.117 132.838 107.754C132.021 109.773 132.417 112.052 131.951 114.171C131.712 115.259 130.977 116.281 131.035 117.393C131.076 118.182 131.145 118.97 131.243 119.755C131.266 120.003 131.331 120.245 131.434 120.472C131.495 120.591 131.565 120.705 131.643 120.814C131.576 120.84 131.519 120.909 131.47 121.054C131.345 121.436 131.47 121.909 131.809 122.123C131.947 122.197 132.096 122.249 132.25 122.276C132.458 122.335 132.673 122.365 132.888 122.364C132.956 122.361 133.022 122.353 133.088 122.34C133.324 122.439 133.565 122.526 133.81 122.6C133.81 122.662 133.823 122.725 133.83 122.788C133.831 122.82 133.838 122.853 133.852 122.882C133.865 122.912 133.885 122.939 133.91 122.96C133.948 122.978 133.99 122.985 134.032 122.982H134.86C134.86 122.913 134.86 122.843 134.86 122.774C134.955 122.784 135.051 122.774 135.142 122.744C135.233 122.715 135.316 122.667 135.387 122.603C135.46 122.509 135.513 122.401 135.54 122.285C135.766 121.518 135.99 120.751 136.213 119.983C136.48 119.134 136.591 118.243 136.541 117.355C136.246 114.539 136.894 111.714 136.683 108.891C136.556 107.194 136.643 105.488 136.942 103.813C137.011 103.434 137.095 103.049 137.126 102.671C137.193 101.959 137.11 101.24 137.161 100.533C137.177 100.285 137.211 100.039 137.242 99.7931C137.451 98.2664 137.56 96.7277 137.57 95.1868C137.565 94.6762 137.533 94.1663 137.475 93.659C137.634 93.6185 137.779 93.5337 137.892 93.4146C138.028 93.2374 137.993 92.9883 137.991 92.7622C137.991 92.2214 138.218 91.7111 138.402 91.2008C138.637 90.497 138.829 89.7797 138.979 89.0528C139.136 88.467 139.222 87.8642 139.235 87.2576C139.235 87.1965 139.232 87.1354 139.226 87.0743C139.283 87.0344 139.331 86.9822 139.366 86.9215C139.406 86.832 139.431 86.7365 139.44 86.6389C139.495 86.2493 139.551 85.8582 139.606 85.4671C139.647 85.187 139.687 84.9074 139.727 84.6283L140.212 81.2382C140.253 80.9433 140.296 80.65 140.337 80.3566L140.464 79.4797C140.477 79.3758 140.493 79.2719 140.503 79.1741C140.876 78.5508 140.52 77.7197 140.481 77.0108ZM136.431 89.7036C136.251 89.2758 136.083 88.8373 136.126 88.376H136.109C136.149 88.234 136.142 88.0828 136.089 87.9451C136.042 87.8336 135.959 87.7389 135.909 87.6274C135.855 87.4912 135.827 87.3461 135.827 87.1996C135.789 86.2704 135.862 85.34 136.045 84.4282C136.065 84.3212 136.086 84.2128 136.106 84.1058C136.17 84.0688 136.229 84.023 136.28 83.9698C136.36 83.8782 136.427 83.7753 136.477 83.6643C136.649 83.3175 136.807 82.9646 136.952 82.6055C136.999 82.4894 137.068 82.355 137.185 82.326C137.161 83.2197 137.252 84.1318 136.889 84.9385C136.82 85.0685 136.769 85.2073 136.736 85.351C136.703 85.5786 136.797 85.8093 136.764 86.0354C136.747 86.153 136.697 86.2615 136.677 86.3776C136.662 86.4346 136.662 86.4946 136.678 86.5515C136.693 86.6084 136.723 86.6601 136.765 86.7015C136.786 86.7157 136.808 86.727 136.831 86.7351C136.822 86.7962 136.814 86.8589 136.808 86.9185C136.796 87.0437 136.79 87.1614 136.782 87.2347C136.747 87.6084 136.733 87.9839 136.741 88.3592C136.741 88.764 136.756 89.1689 136.75 89.5814C136.756 89.6998 136.736 89.8181 136.692 89.9282C136.662 89.985 136.623 90.0366 136.576 90.081C136.532 89.9435 136.483 89.8228 136.431 89.7036Z" fill="url(#paint0_linear_131_195)"/>
<path d="M124.382 71.9767C124.848 71.8812 125.007 70.7336 124.736 69.4135C124.466 68.0935 123.869 67.1008 123.404 67.1963C122.938 67.2918 122.779 68.4394 123.05 69.7595C123.32 71.0795 123.917 72.0722 124.382 71.9767Z" fill="#FBBEBE"/>
<path d="M131.495 121.083C131.37 121.462 131.495 121.935 131.834 122.141C131.971 122.215 132.119 122.266 132.272 122.294C132.479 122.353 132.693 122.382 132.908 122.381C133.172 122.369 133.426 122.265 133.69 122.228C133.72 122.221 133.752 122.225 133.78 122.241C133.793 122.255 133.803 122.272 133.809 122.29C133.814 122.309 133.816 122.328 133.813 122.348C133.816 122.498 133.827 122.648 133.847 122.797C133.847 122.83 133.854 122.862 133.868 122.892C133.882 122.921 133.901 122.948 133.926 122.969C133.964 122.987 134.006 122.995 134.048 122.991H134.876C134.894 122.263 134.815 121.537 134.639 120.831C134.628 120.777 134.607 120.725 134.578 120.678C134.508 120.601 134.416 120.547 134.314 120.525C134.112 120.441 133.893 120.403 133.674 120.413C133.407 120.449 133.184 120.621 132.957 120.765C132.729 120.908 132.42 121.035 132.143 120.962C131.867 120.889 131.637 120.658 131.495 121.083Z" fill="#3F3D56"/>
<path d="M119.348 120.412C119.115 120.661 118.83 120.855 118.513 120.98L118.373 121.047C118.353 121.055 118.337 121.068 118.325 121.086C118.323 121.098 118.323 121.11 118.325 121.122C118.328 121.134 118.333 121.145 118.341 121.154C118.457 121.335 118.63 121.473 118.832 121.547C119.035 121.62 119.255 121.626 119.461 121.562C119.552 121.54 119.636 121.496 119.707 121.434C119.823 121.296 119.89 121.123 119.896 120.942C119.942 120.756 119.934 120.56 119.873 120.378C119.661 119.9 119.583 120.117 119.348 120.412Z" fill="#FBBEBE"/>
<path d="M122.52 122.294C122.524 122.352 122.515 122.41 122.494 122.464C122.422 122.604 122.222 122.597 122.066 122.566C122.043 122.048 121.98 121.532 121.879 121.023C121.582 121.009 121.369 121.29 121.21 121.543L120.801 122.192C120.742 122.304 120.658 122.401 120.557 122.476C120.475 122.521 120.385 122.549 120.293 122.56C119.511 122.69 118.722 122.444 117.968 122.199C117.857 122.17 117.751 122.124 117.652 122.065C117.518 121.966 117.426 121.819 117.398 121.654C117.37 121.49 117.406 121.32 117.499 121.182C117.815 120.754 118.525 120.876 118.919 120.522C118.878 120.771 118.81 121.016 118.717 121.251C119.244 121.171 119.598 120.688 120.023 120.366C120.129 120.276 120.258 120.215 120.395 120.189C120.498 120.18 120.601 120.191 120.7 120.221C121.19 120.344 121.647 120.57 122.043 120.883C122.204 121.009 122.454 121.188 122.524 121.384C122.599 121.617 122.52 122.045 122.52 122.294Z" fill="#3F3D56"/>
<path d="M133.02 71.8866C134.761 71.8866 136.173 70.4734 136.173 68.7302C136.173 66.987 134.761 65.5738 133.02 65.5738C131.278 65.5738 129.866 66.987 129.866 68.7302C129.866 70.4734 131.278 71.8866 133.02 71.8866Z" fill="#FBBEBE"/>
<path d="M139.232 87.3661C139.219 87.9695 139.134 88.5692 138.977 89.1521C138.828 89.876 138.635 90.5902 138.4 91.2909C138.218 91.7997 137.991 92.31 137.993 92.8493C137.993 93.0739 138.029 93.3229 137.892 93.5001C137.769 93.6245 137.615 93.7128 137.446 93.7553C137.362 93.7777 137.284 93.8196 137.218 93.8778C137.153 93.9359 137.103 94.0085 137.071 94.0898C136.927 93.8755 136.82 93.6392 136.753 93.3901C136.479 92.5509 136.225 91.707 135.99 90.8586C135.968 90.8097 135.959 90.7564 135.963 90.7032C135.967 90.6499 135.983 90.5984 136.011 90.553C136.05 90.5193 136.095 90.4939 136.144 90.4782C136.301 90.4143 136.444 90.3221 136.567 90.2062C136.625 90.1549 136.672 90.0933 136.707 90.0244C136.752 89.9149 136.772 89.7972 136.767 89.6791C136.767 89.2743 136.767 88.8709 136.756 88.4661C136.75 88.0923 136.764 87.7184 136.799 87.3462C136.799 87.2729 136.813 87.1552 136.825 87.03C136.848 86.7901 136.894 86.5121 137.023 86.4189C137.217 86.289 137.797 86.4632 138.017 86.4937C138.395 86.5457 138.78 86.6068 139.15 86.6786C139.203 86.9038 139.231 87.1345 139.232 87.3661Z" fill="#3F3D56"/>
<path d="M126.499 72.264C126.377 72.5084 126.084 72.6261 125.858 72.7804L125.084 73.312C125.032 73.3587 124.972 73.3943 124.906 73.4169C124.84 73.4395 124.77 73.4485 124.701 73.4434C124.638 73.4201 124.58 73.3845 124.531 73.3386C124.482 73.2927 124.443 73.2374 124.416 73.176C124.416 73.172 124.416 73.1679 124.416 73.1638L124.255 72.8949L123.492 71.6147C123.407 71.5 123.358 71.363 123.35 71.2205C123.35 71.1548 123.373 71.0937 123.379 71.028C123.381 70.8435 123.328 70.6626 123.226 70.5085C123.165 70.394 123.043 70.2992 123.046 70.1709C123.041 70.0023 123.07 69.8343 123.132 69.6774C123.212 69.5324 123.327 69.4095 123.466 69.3199C123.538 69.268 123.611 69.2191 123.687 69.1671C123.728 69.1395 123.773 69.1188 123.82 69.106C123.947 69.0801 124.072 69.1855 124.2 69.1901C124.751 69.5598 124.963 70.2595 125.397 70.7637C125.641 71.0509 125.666 71.2709 125.942 71.5276C125.986 71.5673 126.029 71.6101 126.07 71.6544C126.125 71.714 126.171 71.7808 126.207 71.853C126.258 71.9844 126.562 72.1387 126.499 72.264Z" fill="#3F3D56"/>
<path d="M131.911 71.8882C132.139 72.3694 132.316 72.898 132.25 73.4266C132.237 73.5698 132.191 73.7082 132.117 73.8315C131.898 74.1691 131.437 74.2302 131.035 74.2501C130.951 74.243 130.866 74.2528 130.785 74.2791C130.704 74.3053 130.629 74.3474 130.565 74.4029C130.512 74.4809 130.485 74.5745 130.491 74.6691C130.496 74.7636 130.532 74.8538 130.594 74.9254C130.723 75.0632 130.883 75.168 131.061 75.2309C131.696 75.5105 132.382 75.7412 133.071 75.677C133.392 75.6465 133.703 75.5533 134.022 75.5059C134.37 75.4682 134.72 75.4488 135.069 75.4479C135.485 75.4326 135.898 75.3913 136.312 75.3501L137.408 75.2416C137.468 75.2425 137.526 75.2213 137.571 75.182C137.652 75.0873 137.548 74.9483 137.448 74.8765C136.866 74.4457 136.126 74.1493 135.794 73.5015C135.642 73.1959 135.595 72.8323 135.482 72.5023C135.369 72.1723 135.189 71.8744 135.118 71.5383C135.081 71.2434 135.064 70.9463 135.068 70.6491C135.072 70.3494 134.963 70.0593 134.763 69.8364C134.544 69.6332 134.228 69.5812 133.932 69.569C133.203 69.5369 132.426 69.7111 131.908 70.2259C131.769 70.365 131.65 70.5315 131.507 70.6568C131.363 70.782 131.168 70.8187 131.263 70.9837C131.357 71.1487 131.544 71.2511 131.644 71.3962C131.746 71.5528 131.836 71.7173 131.911 71.8882Z" fill="#FBBEBE"/>
<path d="M138.128 76.3325C137.936 77.5089 137.623 78.6623 137.194 79.7745C136.979 80.2768 136.795 80.7922 136.645 81.3176C136.527 81.7912 136.55 82.2984 136.442 82.7736C136.307 83.3648 136.173 83.9576 136.065 84.5534C135.883 85.4633 135.81 86.3916 135.848 87.3187C135.848 87.4647 135.876 87.6094 135.93 87.745C135.981 87.855 136.062 87.9497 136.109 88.0627C136.144 88.162 136.159 88.2676 136.151 88.3728C136.144 88.4779 136.115 88.5805 136.066 88.6739C135.988 88.8487 135.882 89.0097 135.752 89.1505C134.329 89.5752 132.807 89.4362 131.325 89.5264C129.959 89.6089 128.578 89.89 127.232 89.6562C127.079 89.0451 127.334 88.405 127.552 87.8091C128.186 86.0782 128.886 84.2754 128.773 82.4619C128.761 82.2504 128.737 82.0397 128.701 81.8309C128.48 80.5461 128.721 79.2154 129.107 77.9702C129.347 77.1941 129.336 76.3676 129.281 75.5594C129.254 75.297 129.251 75.0326 129.271 74.7695C129.293 74.5009 129.393 74.2445 129.558 74.0316C129.558 74.0209 129.571 74.0102 129.579 73.9995C129.587 73.9889 129.646 73.9904 129.694 73.9995C129.706 74.0047 129.719 74.0073 129.732 74.0073C129.745 74.0073 129.758 74.0047 129.77 73.9995L129.787 73.9889C129.793 73.9842 129.801 73.9818 129.809 73.9818C129.817 73.9818 129.824 73.9842 129.831 73.9889C129.866 74.0102 129.886 74.0836 129.962 74.0973C130.075 74.1144 130.189 74.1251 130.303 74.1294C130.44 74.1335 130.576 74.153 130.709 74.1875H130.727C130.925 74.221 131.129 74.2036 131.319 74.137C131.446 74.1054 131.568 74.0582 131.682 73.9965C131.716 73.9598 131.927 73.9262 131.969 73.9002C132.108 73.8162 132.078 73.422 132.107 73.2601C132.123 73.0977 132.161 72.9383 132.221 72.7865C132.291 72.6745 132.387 72.5812 132.501 72.5149C132.614 72.4486 132.743 72.4112 132.875 72.4061C133.137 72.3998 133.4 72.4234 133.658 72.4763C134.227 72.5573 134.81 72.5436 135.369 72.675C135.649 72.7407 135.956 72.84 136.214 72.7116C136.284 72.7284 136.295 72.7895 136.295 72.8644C136.289 72.9355 136.274 73.0057 136.252 73.0737C136.155 73.4954 136.486 73.8834 136.791 74.189C136.92 74.333 137.072 74.4544 137.241 74.548C137.394 74.6183 137.547 74.6473 137.699 74.7237C137.823 74.7897 137.928 74.8859 138.005 75.0033C138.093 75.1379 138.152 75.2893 138.179 75.4479C138.211 75.7435 138.194 76.0425 138.128 76.3325Z" fill="#3F3D56"/>
<path opacity="0.1" d="M138.128 76.3325C137.936 77.5089 137.623 78.6623 137.194 79.7745C136.979 80.2768 136.795 80.7922 136.645 81.3176C136.527 81.7912 136.55 82.2984 136.442 82.7736C136.307 83.3648 136.173 83.9576 136.065 84.5534C136.033 84.5718 135.999 84.5886 135.965 84.6039C135.775 84.6946 135.574 84.7594 135.367 84.7964C134.995 84.8414 134.618 84.8291 134.25 84.7597L132.072 84.4679C131.202 84.3503 130.275 84.2082 129.629 83.6184C129.271 83.2946 129.036 82.8668 128.778 82.4543C128.766 82.2427 128.742 82.0321 128.706 81.8233C128.485 80.5384 128.726 79.2077 129.112 77.9626C129.352 77.1865 129.341 76.36 129.286 75.5518C129.259 75.2893 129.255 75.025 129.275 74.7619C129.297 74.4933 129.397 74.2369 129.562 74.024C129.607 74.0109 129.652 74.0007 129.698 73.9934C129.729 73.9872 129.76 73.9831 129.791 73.9812H129.836C129.887 73.9814 129.938 73.9875 129.988 73.9995C130.092 74.0327 130.194 74.072 130.293 74.1172H130.312C130.443 74.1603 130.58 74.18 130.718 74.1752C130.919 74.1752 131.127 74.1431 131.328 74.1294C131.577 74.0905 131.832 74.1362 132.052 74.2593C132.194 74.3734 132.328 74.4964 132.455 74.6274C132.607 74.7475 132.779 74.841 132.963 74.904C134.277 75.406 135.735 75.3753 137.026 74.8184C137.15 74.7478 137.291 74.7119 137.434 74.7145C137.539 74.7352 137.639 74.7779 137.727 74.8398C137.818 74.8933 137.908 74.9452 138.002 74.9926C138.09 75.1272 138.149 75.2786 138.176 75.4372C138.211 75.7361 138.195 76.0389 138.128 76.3325Z" fill="black"/>
<path d="M139.458 75.321C138.85 75.1352 138.266 74.8788 137.718 74.5572C137.63 74.4956 137.53 74.453 137.425 74.4319C137.282 74.4302 137.141 74.466 137.016 74.5358C135.725 75.0925 134.267 75.1232 132.954 74.6213C132.771 74.5577 132.599 74.4643 132.446 74.3448C132.319 74.2141 132.184 74.0912 132.043 73.9766C131.541 73.6512 130.846 74.0331 130.284 73.8238C130.185 73.7793 130.083 73.74 129.979 73.7062C129.535 73.5947 129.083 74.0377 128.647 73.9033C128.484 74.3451 128.364 74.8014 128.288 75.266C128.226 75.7996 128.193 76.3361 128.189 76.8733C128.189 77.1956 128.173 77.518 128.189 77.8404C128.242 77.8492 128.294 77.8691 128.34 77.8988C128.385 77.9285 128.424 77.9674 128.454 78.013C128.474 78.0662 128.482 78.1232 128.478 78.1799C128.474 78.2367 128.457 78.2918 128.43 78.3415C128.111 79.1619 127.787 79.9915 127.303 80.7263C127.644 80.9297 127.961 81.1717 128.247 81.4474C128.781 82.0127 129.043 82.8056 129.62 83.3281C130.271 83.9163 131.197 84.0599 132.063 84.1761L134.241 84.4679C134.61 84.537 134.987 84.5498 135.36 84.5061C135.566 84.4683 135.767 84.4031 135.956 84.312C136.08 84.2602 136.193 84.1856 136.289 84.092C136.37 84.0006 136.436 83.8976 136.486 83.7865C136.658 83.4412 136.816 83.0883 136.961 82.7308C137.011 82.604 137.087 82.4558 137.225 82.4451C138.034 81.7148 138.797 80.9662 139.606 80.2359C139.931 79.9662 140.223 79.6585 140.474 79.3192C140.876 78.7249 140.511 77.8831 140.474 77.1651C140.47 76.9814 140.447 76.7987 140.406 76.6197C140.274 76.0987 139.966 75.4753 139.458 75.321Z" fill="#7D3CFF"/>
<path opacity="0.1" d="M126.499 72.264C126.377 72.5084 126.084 72.626 125.858 72.7803L125.084 73.312C125.032 73.3586 124.972 73.3943 124.906 73.4169C124.84 73.4395 124.77 73.4485 124.701 73.4434C124.638 73.4201 124.58 73.3845 124.531 73.3386C124.482 73.2927 124.443 73.2374 124.415 73.176C124.415 73.1409 124.415 73.1027 124.415 73.066C124.41 72.9424 124.426 72.8187 124.464 72.7009C124.54 72.5281 124.658 72.3769 124.806 72.2609C125.094 71.9885 125.435 71.7803 125.809 71.6498C125.867 71.6271 125.931 71.6208 125.992 71.6315C126.016 71.6377 126.039 71.6474 126.059 71.6605C126.114 71.7201 126.16 71.7869 126.197 71.8591C126.258 71.9844 126.562 72.1387 126.499 72.264Z" fill="black"/>
<path d="M128.321 73.8742C128.062 73.862 127.85 73.6741 127.661 73.4954L127.082 72.9576C127.043 72.9248 127.009 72.8868 126.981 72.8445C126.95 72.7851 126.926 72.722 126.911 72.6566C126.788 72.348 126.596 72.0719 126.349 71.8499C126.306 71.7952 126.249 71.7539 126.183 71.7308C126.121 71.7193 126.057 71.7257 125.998 71.7491C125.625 71.8794 125.283 72.0877 124.995 72.3602C124.847 72.4764 124.729 72.6275 124.654 72.8002C124.615 72.9179 124.599 73.0417 124.605 73.1654C124.608 73.569 124.699 73.9672 124.87 74.3326C124.896 74.3891 124.925 74.4456 124.956 74.5006C125.159 74.8375 125.4 75.1506 125.673 75.4341L126.036 75.8405C126.394 76.2408 126.751 76.6411 127.139 77.0093C127.277 77.1576 127.446 77.2752 127.633 77.3545C127.727 77.3929 127.83 77.4046 127.93 77.3885C128.03 77.3723 128.124 77.3288 128.201 77.2629C128.274 77.1781 128.329 77.0794 128.363 76.9726C128.598 76.3615 128.821 75.7259 128.834 75.0674C128.838 74.8037 128.826 74.5401 128.801 74.2776C128.778 73.9995 128.581 73.8911 128.321 73.8742Z" fill="#7D3CFF"/>
<path d="M137.571 95.2632C137.562 96.8 137.453 98.3346 137.245 99.8572C137.214 100.103 137.18 100.349 137.164 100.595C137.113 101.309 137.196 102.025 137.129 102.734C137.093 103.117 137.014 103.498 136.947 103.872C136.649 105.543 136.561 107.244 136.687 108.937C136.898 111.752 136.252 114.57 136.546 117.378C136.581 117.924 136.551 118.472 136.455 119.011C136.401 119.345 136.322 119.675 136.219 119.998C135.996 120.763 135.772 121.527 135.547 122.29C135.521 122.406 135.469 122.514 135.395 122.607C135.317 122.675 135.225 122.725 135.127 122.754C135.028 122.783 134.924 122.791 134.822 122.777C133.942 122.749 133.113 122.369 132.313 121.998C132.221 121.961 132.136 121.91 132.061 121.845C131.895 121.672 131.908 121.4 131.835 121.173C131.762 120.945 131.563 120.731 131.451 120.498C131.358 120.276 131.301 120.042 131.284 119.802C131.182 119.02 131.113 118.235 131.077 117.447C131.019 116.337 131.751 115.317 131.992 114.238C132.45 112.118 132.063 109.844 132.876 107.832C133.133 107.197 132.76 106.427 132.724 105.742C132.71 105.301 132.653 104.862 132.553 104.431C132.4 103.857 132.078 103.316 132.055 102.72C132.038 102.289 132.177 101.869 132.249 101.445C132.344 100.82 132.335 100.183 132.223 99.5608C132.142 99.0475 132.018 98.5341 131.895 98.033L131.867 98.0896C131.495 98.8171 131.176 99.5701 130.91 100.343C130.788 100.717 130.681 101.099 130.529 101.463C130.403 101.768 130.249 102.048 130.098 102.335C129.556 103.348 129.084 104.397 128.686 105.475C128.497 106.003 128.331 106.544 128.166 107.074L127.035 110.741C126.729 111.705 126.395 112.637 126.096 113.6C125.673 114.975 125.25 116.337 124.759 117.682C124.301 118.958 123.756 120.279 123.919 121.627C123.499 121.825 123.036 121.918 122.572 121.9C121.785 121.83 121.013 121.643 120.282 121.344C119.991 121.235 119.688 121.113 119.491 120.873C119.153 120.459 119.237 119.853 119.339 119.326C119.377 119.088 119.439 118.855 119.522 118.629C119.638 118.348 119.827 118.099 119.946 117.821C120.186 117.288 120.201 116.684 120.296 116.105C120.39 115.526 120.601 114.915 121.096 114.6C121.18 113.583 121.598 112.579 121.828 111.584C122.002 110.831 122.06 110.057 122.198 109.293C122.335 108.529 122.556 107.765 123.017 107.146C122.981 106.508 123.125 105.873 123.433 105.313C123.507 105.19 123.568 105.059 123.614 104.923C123.643 104.791 123.659 104.656 123.663 104.52C123.713 103.989 123.94 103.49 124.307 103.104C124.154 102.546 124.367 101.964 124.557 101.423C124.798 100.733 124.906 100.004 124.878 99.2736C124.854 99.0697 124.864 98.8632 124.907 98.6625C124.95 98.5097 125.034 98.3798 125.083 98.2332C125.126 98.0535 125.149 97.8695 125.151 97.6847C125.211 96.8582 125.545 96.079 125.914 95.3411C126.134 94.9102 125.948 94.3251 125.994 93.8454C126.073 93.0479 126.16 92.2229 126.555 91.5277C126.629 91.3963 126.708 91.2711 126.774 91.1351C126.853 90.941 126.896 90.7338 126.9 90.524C126.914 90.1741 126.963 89.8838 126.838 89.5584C127.654 88.8786 128.769 88.6876 129.831 88.6418C130.893 88.5959 131.968 88.6922 133.007 88.4661C133.313 88.3973 133.618 88.3026 133.94 88.2568C134.671 88.1498 135.413 88.3163 136.135 88.4813C136.085 88.9397 136.252 89.3797 136.44 89.8059C137.173 91.5325 137.558 93.3872 137.571 95.2632Z" fill="#33313F"/>
<path opacity="0.1" d="M133.977 95.613L132.223 99.5608C132.142 99.0475 132.018 98.5342 131.895 98.0331L131.867 98.0896V98.0071L132.823 95.9033L133.977 95.613Z" fill="black"/>
<path opacity="0.1" d="M139.232 87.3661C139.131 87.4419 139.01 87.4869 138.884 87.4959C138.69 87.5028 138.497 87.4765 138.313 87.418L136.939 87.0743C136.896 87.0637 136.854 87.0488 136.814 87.03C136.837 86.7901 136.883 86.5121 137.013 86.4189C137.206 86.289 137.786 86.4632 138.006 86.4937C138.385 86.5457 138.769 86.6068 139.139 86.6786C139.196 86.9034 139.227 87.1341 139.232 87.3661Z" fill="black"/>
<path d="M140.393 78.2758C140.422 78.4026 140.464 78.5279 140.488 78.6562C140.529 78.9711 140.518 79.2906 140.456 79.6019L140.331 80.4758L140.206 81.3543L139.722 84.7353L139.603 85.5725L139.435 86.7412C139.427 86.8385 139.402 86.9336 139.362 87.0223C139.312 87.1054 139.242 87.1747 139.158 87.224C139.075 87.2733 138.981 87.3012 138.884 87.305C138.691 87.3111 138.498 87.2848 138.313 87.2271L136.939 86.8818C136.879 86.8711 136.822 86.8476 136.771 86.813C136.729 86.772 136.699 86.7205 136.683 86.6638C136.668 86.6072 136.668 86.5474 136.683 86.4907C136.703 86.3746 136.753 86.2661 136.77 86.15C136.803 85.9239 136.709 85.6916 136.742 85.4671C136.775 85.324 136.827 85.1859 136.895 85.0561C137.353 84.0432 137.087 82.8607 137.243 81.7607C137.383 80.8949 137.748 80.0814 138.302 79.4018C138.644 78.9728 139.037 78.587 139.471 78.2529C139.642 78.12 139.914 77.8465 140.129 77.7946C140.406 77.7365 140.348 78.0833 140.393 78.2758Z" fill="#7D3CFF"/>
<path d="M129.997 65.1155C129.897 65.4363 130.054 65.7892 129.982 66.1162C129.904 66.4767 129.565 66.7273 129.469 67.0893C129.317 67.6409 129.784 68.1435 130.126 68.6018C131.392 70.3038 131.226 72.6596 130.793 74.7359C130.444 76.4017 129.961 78.0366 129.35 79.6248C129.159 80.1183 128.949 80.6194 128.573 80.9891C129.275 80.7874 130.022 80.5842 130.725 80.7798C131.617 81.0273 132.386 81.8935 133.29 81.6965C133.833 81.5758 134.215 81.093 134.703 80.8256C135.619 80.3322 136.722 80.6423 137.744 80.8012C137.964 80.8531 138.194 80.8415 138.408 80.7676C138.571 80.6797 138.71 80.552 138.811 80.3963C139.266 79.8111 139.539 79.1042 139.595 78.3644C139.619 77.996 139.565 77.6266 139.436 77.2808C139.307 76.935 139.105 76.6206 138.846 76.3584C138.629 76.1537 138.369 75.9887 138.203 75.7473C138.041 75.4654 137.955 75.1466 137.951 74.8214C137.831 73.1409 138.24 71.4252 137.818 69.7996C137.666 69.2206 137.417 68.666 137.35 68.0732C137.266 67.3353 137.466 66.5455 137.173 65.8702C136.942 65.3339 136.434 64.9535 135.886 64.758C135.338 64.5624 134.752 64.5074 134.17 64.4524C133.334 64.3821 130.347 64.0231 129.997 65.1155Z" fill="#33313F"/>
<g opacity="0.1">
<path opacity="0.1" d="M130.793 74.7359C130.445 76.3948 129.966 78.0231 129.358 79.605C129.463 79.3957 129.552 79.1757 129.636 78.9572C130.248 77.3692 130.73 75.7342 131.078 74.0683C131.513 71.9905 131.679 69.6377 130.412 67.9343C130.107 67.5279 129.715 67.0879 129.729 66.6112C129.616 66.7554 129.528 66.9176 129.469 67.0909C129.317 67.6425 129.784 68.1451 130.126 68.6034C131.392 70.3038 131.226 72.6597 130.793 74.7359Z" fill="black"/>
<path opacity="0.1" d="M130 65.9619C130.123 65.8096 130.214 65.6346 130.269 65.447C130.293 65.2201 130.286 64.991 130.251 64.7656C130.133 64.8542 130.045 64.9761 129.997 65.1155C129.907 65.3859 130.011 65.6792 130 65.9619Z" fill="black"/>
<path opacity="0.1" d="M139.098 79.7241C138.996 79.8794 138.858 80.0065 138.695 80.0938C138.481 80.1693 138.25 80.181 138.031 80.1274C137.009 79.9747 135.894 79.6599 134.99 80.1534C134.5 80.4192 134.12 80.902 133.575 81.0242C132.673 81.2259 131.904 80.3597 131.012 80.1076C130.38 79.9319 129.715 80.077 129.078 80.2604C128.952 80.5303 128.781 80.7772 128.573 80.9906C129.275 80.789 130.022 80.5858 130.725 80.7813C131.617 81.0288 132.386 81.8951 133.29 81.698C133.833 81.5773 134.215 81.0945 134.703 80.8272C135.619 80.3337 136.723 80.6438 137.744 80.8027C137.964 80.8547 138.194 80.843 138.408 80.7691C138.571 80.6812 138.71 80.5535 138.811 80.3979C139.087 80.0326 139.301 79.6237 139.442 79.1879C139.34 79.3747 139.225 79.5539 139.098 79.7241Z" fill="black"/>
</g>
</g>
<defs>
<linearGradient id="paint0_linear_131_195" x1="117.316" y1="93.5643" x2="140.67" y2="93.5643" gradientUnits="userSpaceOnUse">
<stop stop-color="#808080" stop-opacity="0.25"/>
<stop offset="0.54" stop-color="#808080" stop-opacity="0.12"/>
<stop offset="1" stop-color="#808080" stop-opacity="0.1"/>
</linearGradient>
<clipPath id="clip0_131_195">
<rect width="178" height="123" fill="white"/>
</clipPath>
</defs>
</svg>
