<svg width="173" height="103" viewBox="0 0 173 103" fill="none" xmlns="http://www.w3.org/2000/svg">
<g clip-path="url(#clip0_1_133)">
<path d="M132.453 101.835C130.238 99.9715 128.893 97.0273 129.245 94.1611C129.598 91.2949 131.784 88.66 134.618 88.0513C137.453 87.4427 140.684 89.1275 141.545 91.8849C142.019 86.5687 142.565 81.0297 145.403 76.5025C147.973 72.4032 152.424 69.4699 157.248 68.9452C162.072 68.4204 167.151 70.4024 170.16 74.1941C173.169 77.9859 173.905 83.4984 171.798 87.8517C170.246 91.0586 167.386 93.4452 164.39 95.3869C154.707 101.608 143.094 104.138 131.688 102.511L132.453 101.835Z" fill="#F2F2F2"/>
<path d="M165.39 70.5122C161.409 73.7409 157.757 77.3519 154.487 81.2931C149.37 87.4399 145.228 94.3315 142.208 101.728C141.987 102.268 142.867 102.502 143.085 101.969C148.028 89.9481 155.917 79.3531 166.033 71.1529C166.487 70.7846 165.84 70.1469 165.39 70.5122Z" fill="white"/>
<path d="M55.6915 101.329C58.7336 98.769 60.5814 94.7251 60.0969 90.7884C59.6123 86.8517 56.6108 83.2326 52.7176 82.3966C48.8243 81.5606 44.3862 83.8748 43.2037 87.6621C42.5529 80.3603 41.803 72.7525 37.9047 66.5343C34.3748 60.9039 28.2611 56.8751 21.6352 56.1543C15.0093 55.4336 8.03301 58.1557 3.90067 63.3638C-0.23168 68.5718 -1.24347 76.1432 1.65072 82.1224C3.78277 86.5271 7.71075 89.8052 11.8263 92.472C24.9563 100.98 41.2441 104.529 56.7421 102.257" fill="#F2F2F2"/>
<path d="M10.4529 58.3066C15.9201 62.7413 20.9357 67.701 25.4271 73.1142C29.9193 78.5218 33.8741 84.3506 37.2361 90.5187C39.1153 93.9787 40.8034 97.5383 42.2929 101.182C42.5966 101.923 41.3882 102.245 41.0878 101.512C38.4495 95.0893 35.1854 88.9392 31.3424 83.1502C27.518 77.3822 23.1408 71.9972 18.2722 67.071C15.5185 64.286 12.6131 61.6539 9.56923 59.1867C8.94532 58.6807 9.83416 57.8049 10.4529 58.3067L10.4529 58.3066Z" fill="white"/>
<path d="M124.182 102.775H51.6017V28.6145C51.6017 12.8364 64.4917 0 80.3356 0H95.4483C111.292 0 124.182 12.8364 124.182 28.6145V102.775Z" fill="#F2F2F2"/>
<path d="M109.07 102.775H51.6017V28.6145C51.5859 22.5687 53.5083 16.6757 57.0891 11.7935C57.2211 11.6143 57.3528 11.4374 57.4886 11.2625C59.2206 9.0003 61.2818 7.008 63.6041 5.35138C63.7353 5.25633 63.867 5.16293 64.0006 5.06953C65.9438 3.73037 68.0459 2.63564 70.2589 1.81025C70.3903 1.76064 70.5241 1.71094 70.6579 1.66327C72.6594 0.951986 74.7341 0.464757 76.8438 0.210584C76.9746 0.192791 77.1089 0.178868 77.2432 0.164945C79.2991 -0.0539645 81.3726 -0.0539645 83.4285 0.164945C83.5624 0.178868 83.6967 0.192789 83.829 0.210774C85.9382 0.464964 88.0124 0.952133 90.0133 1.66328C90.1472 1.71095 90.281 1.76065 90.4128 1.81035C92.5985 2.62533 94.6758 3.70373 96.5983 5.02147C96.7319 5.11285 96.8656 5.20625 96.9973 5.29966C98.299 6.22497 99.5217 7.25583 100.653 8.3817C101.56 9.28478 102.405 10.2474 103.183 11.2631C103.318 11.4374 103.45 11.6143 103.582 11.7932C107.163 16.6754 109.085 22.5686 109.07 28.6145V102.775Z" fill="#CCCCCC"/>
<path d="M104.397 69.6055C106.154 69.6055 107.578 68.187 107.578 66.4371C107.578 64.6873 106.154 63.2687 104.397 63.2687C102.639 63.2687 101.215 64.6873 101.215 66.4371C101.215 68.187 102.639 69.6055 104.397 69.6055Z" fill="#7D3CFF"/>
<path d="M118.236 100.553H115.798L114.639 91.1891L118.237 91.1893L118.236 100.553Z" fill="#FFB8B8"/>
<path d="M114.057 99.8596H118.759V102.808H111.097C111.097 102.42 111.173 102.037 111.322 101.679C111.471 101.322 111.689 100.997 111.964 100.723C112.239 100.449 112.565 100.232 112.924 100.084C113.283 99.9358 113.668 99.8596 114.057 99.8596Z" fill="#2F2E41"/>
<path d="M130.366 100.553H127.928L126.768 91.1891L130.367 91.1893L130.366 100.553Z" fill="#FFB8B8"/>
<path d="M126.187 99.8596H130.889V102.808H123.227C123.227 102.42 123.303 102.037 123.452 101.679C123.601 101.322 123.819 100.997 124.094 100.723C124.369 100.449 124.695 100.232 125.054 100.084C125.413 99.9358 125.798 99.8596 126.187 99.8596Z" fill="#2F2E41"/>
<path d="M106.007 67.0648C105.831 66.8075 105.715 66.515 105.665 66.2079C105.616 65.9009 105.634 65.5867 105.72 65.2876C105.805 64.9885 105.956 64.7117 106.16 64.4767C106.365 64.2417 106.619 64.0542 106.904 63.9275L115.191 41.1811L119.269 43.3973L109.807 65.1345C109.989 65.6257 109.983 66.1664 109.792 66.654C109.6 67.1417 109.236 67.5424 108.768 67.7804C108.299 68.0183 107.759 68.0769 107.251 67.945C106.742 67.8131 106.299 67.4999 106.007 67.0648Z" fill="#FFB8B8"/>
<path d="M129.121 71.3389C128.85 71.1842 128.616 70.9723 128.437 70.718C128.257 70.4636 128.135 70.1732 128.08 69.867C128.026 69.5609 128.039 69.2464 128.119 68.9459C128.2 68.6454 128.345 68.3661 128.546 68.1276L125.978 44.0658L130.619 44.277L131.686 67.9449C132.066 68.3069 132.299 68.7951 132.342 69.317C132.385 69.8388 132.233 70.3582 131.917 70.7765C131.601 71.1949 131.142 71.4832 130.626 71.5868C130.111 71.6905 129.575 71.6023 129.121 71.3389Z" fill="#FFB8B8"/>
<path d="M121.718 36.9679C124.415 36.9679 126.602 34.7903 126.602 32.1042C126.602 29.4181 124.415 27.2405 121.718 27.2405C119.02 27.2405 116.834 29.4181 116.834 32.1042C116.834 34.7903 119.02 36.9679 121.718 36.9679Z" fill="#FFB8B8"/>
<path d="M129.09 65.8665H114.365L114.383 65.7524C114.41 65.5819 117.007 48.6354 115.091 43.0913C114.899 42.5465 114.916 41.9501 115.139 41.417C115.362 40.8838 115.775 40.4516 116.298 40.2035H116.298C119.037 38.9192 124.294 37.3378 128.731 41.1756C129.383 41.7496 129.893 42.4671 130.22 43.2712C130.546 44.0753 130.68 44.944 130.612 45.8086L129.09 65.8665Z" fill="#7D3CFF"/>
<path d="M117.193 51.1398L110.564 49.8006L113.672 42.4678C113.858 41.7575 114.319 41.1498 114.954 40.7777C115.59 40.4057 116.347 40.2998 117.061 40.4833C117.774 40.6668 118.386 41.1246 118.761 41.7564C119.136 42.3882 119.244 43.1423 119.062 43.8535L117.193 51.1398Z" fill="#7D3CFF"/>
<path d="M125.684 53.6266L125.285 44.529C124.983 42.8189 125.966 41.2022 127.478 40.9379C128.99 40.6746 130.467 41.8607 130.771 43.5835L132.268 52.0842L125.684 53.6266Z" fill="#7D3CFF"/>
<path d="M128.6 64.7774C130.969 73.7631 131.228 85.1876 130.588 97.6494L127.407 97.2533L121.64 73.4905L118.458 97.6494L114.879 97.4514C113.81 84.3759 112.769 73.1508 114.481 65.7675L128.6 64.7774Z" fill="#2F2E41"/>
<path d="M124.936 35.863C124.025 36.8295 122.332 36.3106 122.214 34.9903C122.204 34.8877 122.205 34.7846 122.216 34.6822C122.277 34.0973 122.616 33.5663 122.535 32.9488C122.517 32.7951 122.459 32.6486 122.368 32.5232C121.642 31.555 119.938 32.9563 119.252 32.0798C118.832 31.5424 119.326 30.6962 119.004 30.0955C118.578 29.3027 117.318 29.6938 116.527 29.2596C115.648 28.7765 115.7 27.4328 116.279 26.6155C116.985 25.6187 118.223 25.0868 119.446 25.0101C120.668 24.9335 121.882 25.2626 123.023 25.7055C124.32 26.2087 125.606 26.9042 126.404 28.0397C127.374 29.4206 127.468 31.277 126.983 32.8916C126.687 33.8739 125.68 35.0737 124.936 35.863Z" fill="#2F2E41"/>
<path d="M167.031 102.902H20.2206C20.158 102.902 20.0979 102.877 20.0537 102.833C20.0094 102.788 19.9846 102.729 19.9846 102.666C19.9846 102.604 20.0094 102.544 20.0537 102.5C20.0979 102.455 20.158 102.431 20.2206 102.43H167.031C167.094 102.431 167.154 102.455 167.198 102.5C167.242 102.544 167.267 102.604 167.267 102.666C167.267 102.729 167.242 102.788 167.198 102.833C167.154 102.877 167.094 102.902 167.031 102.902Z" fill="#3F3D56"/>
<path d="M93.2609 81.2889H67.4103C67.0699 81.2907 66.7426 81.158 66.5003 80.9199C66.258 80.6817 66.1204 80.3576 66.1178 80.0185V22.558C66.1204 22.2189 66.258 21.8948 66.5003 21.6566C66.7426 21.4185 67.0699 21.2858 67.4103 21.2876H93.2609C93.6014 21.2858 93.9287 21.4185 94.171 21.6566C94.4133 21.8948 94.5508 22.2189 94.5535 22.558V80.0185C94.5508 80.3576 94.4133 80.6817 94.171 80.9199C93.9287 81.158 93.6014 81.2907 93.2609 81.2889Z" fill="white"/>
<path d="M94.5534 39.88H66.1178V40.2761H94.5534V39.88Z" fill="#CCCCCC"/>
<path d="M94.6529 62.4766H66.2172V62.8727H94.6529V62.4766Z" fill="#CCCCCC"/>
<path d="M75.4638 21.2876H75.0661V81.487H75.4638V21.2876Z" fill="#CCCCCC"/>
<path d="M85.4063 21.2876H85.0086V81.487H85.4063V21.2876Z" fill="#CCCCCC"/>
</g>
<defs>
<clipPath id="clip0_1_133">
<rect width="173" height="103" fill="white"/>
</clipPath>
</defs>
</svg>
