<svg width="185" height="177" viewBox="0 0 185 177" fill="none" xmlns="http://www.w3.org/2000/svg">
<g filter="url(#filter0_d_2_2)">
<path d="M181 135.37H4V135.458H181V135.37Z" fill="#EBEBEB"/>
<path d="M163.265 141.065H151.54V141.154H163.265V141.065Z" fill="#EBEBEB"/>
<path d="M121.252 142.028H118.176V142.117H121.252V142.028Z" fill="#EBEBEB"/>
<path d="M151.186 137.78H144.393V137.869H151.186V137.78Z" fill="#EBEBEB"/>
<path d="M37.8601 138.375H22.5708V138.464H37.8601V138.375Z" fill="#EBEBEB"/>
<path d="M43.255 138.375H41.0142V138.464H43.255V138.375Z" fill="#EBEBEB"/>
<path d="M83.7031 139.869H50.5404V139.957H83.7031V139.869Z" fill="#EBEBEB"/>
<path d="M87.898 119.581H19.5441C19.0087 119.58 18.4954 119.367 18.1171 118.988C17.7388 118.609 17.5263 118.095 17.5263 117.56V21.4736C17.531 20.9412 17.7455 20.4322 18.1233 20.057C18.5011 19.6819 19.0117 19.4709 19.5441 19.47H87.898C88.4341 19.47 88.9482 19.683 89.3273 20.062C89.7064 20.4411 89.9193 20.9552 89.9193 21.4913V117.56C89.9193 118.096 89.7064 118.61 89.3273 118.989C88.9482 119.368 88.4341 119.581 87.898 119.581ZM19.5441 19.5408C19.0321 19.5417 18.5414 19.7458 18.1797 20.1082C17.818 20.4705 17.6148 20.9616 17.6148 21.4736V117.56C17.6148 118.072 17.818 118.563 18.1797 118.925C18.5414 119.288 19.0321 119.492 19.5441 119.493H87.898C88.4103 119.492 88.9014 119.288 89.2637 118.926C89.626 118.563 89.8299 118.072 89.8308 117.56V21.4736C89.8299 20.9613 89.626 20.4702 89.2637 20.108C88.9014 19.7457 88.4103 19.5417 87.898 19.5408H19.5441Z" fill="#EBEBEB"/>
<path d="M164.472 119.581H96.1144C95.5785 119.58 95.065 119.367 94.6861 118.988C94.3072 118.609 94.094 118.096 94.093 117.56V21.4736C94.0986 20.9409 94.3139 20.4318 94.6923 20.0568C95.0707 19.6817 95.5816 19.4709 96.1144 19.47H164.472C165.004 19.4718 165.513 19.6832 165.89 20.0583C166.267 20.4333 166.481 20.9418 166.486 21.4736V117.56C166.486 118.095 166.274 118.608 165.896 118.987C165.519 119.366 165.007 119.579 164.472 119.581ZM96.1144 19.5408C95.602 19.5417 95.1109 19.7457 94.7487 20.108C94.3864 20.4702 94.1825 20.9613 94.1815 21.4736V117.56C94.1825 118.072 94.3864 118.563 94.7487 118.926C95.1109 119.288 95.602 119.492 96.1144 119.493H164.472C164.984 119.492 165.475 119.288 165.837 118.926C166.2 118.563 166.404 118.072 166.405 117.56V21.4736C166.404 20.9613 166.2 20.4702 165.837 20.108C165.475 19.7457 164.984 19.5417 164.472 19.5408H96.1144Z" fill="#EBEBEB"/>
<path d="M81.5614 135.37H88.1529V90.1036H81.5614V135.37Z" fill="#E6E6E6"/>
<path d="M83.8836 135.37H81.5614V126.767H86.3156L83.8836 135.37Z" fill="#F0F0F0"/>
<path d="M151.275 135.37H157.866V90.1036H151.275V135.37Z" fill="#E6E6E6"/>
<path d="M81.5649 133.019H153.299V90.1001H81.5649V133.019Z" fill="#F0F0F0"/>
<path d="M150.977 135.37H153.299V126.767H148.545L150.977 135.37Z" fill="#F0F0F0"/>
<path d="M129.649 93.6542V129.157H150.914V93.6542H129.649Z" fill="#E6E6E6"/>
<path d="M138.166 94.9039H142.372C144.154 94.9295 145.882 94.2867 147.214 93.102H133.345C134.672 94.2812 136.391 94.9235 138.166 94.9039Z" fill="#F0F0F0"/>
<path d="M106.798 93.6542V129.157H128.063V93.6542H106.798Z" fill="#E6E6E6"/>
<path d="M115.11 94.9038H119.319C121.098 94.9262 122.821 94.2836 124.151 93.102H110.281C111.61 94.2837 113.332 94.9263 115.11 94.9038Z" fill="#F0F0F0"/>
<path d="M83.9474 93.6578V129.16H105.212V93.6578H83.9474Z" fill="#E6E6E6"/>
<path d="M92.2628 94.9039H96.4683C98.2473 94.9262 99.9705 94.2836 101.3 93.102H87.4307C88.7603 94.2842 90.4838 94.9269 92.2628 94.9039Z" fill="#F0F0F0"/>
<path d="M30.4084 135.37H75.3876L75.3876 34.2601H30.4084L30.4084 135.37Z" fill="#F0F0F0"/>
<path d="M30.4084 135.37H74.4389L74.4389 34.2601H30.4084L30.4084 135.37Z" fill="#F5F5F5"/>
<path d="M71.7556 133.076V36.554H33.0917L33.0917 133.076H71.7556Z" fill="#F0F0F0"/>
<path d="M67.9572 54.516C67.9576 53.1317 67.6854 51.761 67.156 50.482C66.6266 49.203 65.8504 48.0408 64.8717 47.0618C63.8931 46.0828 62.7312 45.3062 61.4524 44.7764C60.1735 44.2466 58.8028 43.9739 57.4186 43.9739H47.4358C44.6399 43.9739 41.9584 45.0846 39.9814 47.0616C38.0044 49.0386 36.8937 51.72 36.8937 54.516H67.9572Z" fill="#FAFAFA"/>
<path d="M67.9607 127.075V104.016H36.8972V127.075H67.9607Z" fill="#F5F5F5"/>
<path d="M67.9607 61.0048H54.2574V101.039H67.9607V61.0048Z" fill="#F5F5F5"/>
<path d="M50.597 61.0048H36.8937V101.039H50.597V61.0048Z" fill="#F5F5F5"/>
<path d="M41.878 80.843H36.2494C36.0184 80.843 35.7969 80.7512 35.6336 80.5879C35.4703 80.4246 35.3786 80.2031 35.3786 79.9721C35.3795 79.7415 35.4716 79.5205 35.6347 79.3574C35.7978 79.1943 36.0187 79.1022 36.2494 79.1013H41.878C42.1087 79.1022 42.3296 79.1943 42.4928 79.3574C42.6559 79.5205 42.7479 79.7415 42.7488 79.9721C42.7488 80.2031 42.6571 80.4246 42.4938 80.5879C42.3305 80.7512 42.109 80.843 41.878 80.843Z" fill="#E0E0E0"/>
<path d="M33.7891 133.076L33.7891 36.554H33.0917L33.0917 133.076H33.7891Z" fill="#F0F0F0"/>
<path d="M103.842 79.0057H151.54V29.1448L103.842 29.1448V79.0057Z" fill="#E6E6E6"/>
<path d="M102.639 79.0057H150.336V29.1448L102.639 29.1448V79.0057Z" fill="#F5F5F5"/>
<path d="M99.8526 81.597H151.54V79.0057H99.8526V81.597Z" fill="#E6E6E6"/>
<path d="M98.4968 81.597H147.522V79.0057H98.4968V81.597Z" fill="#F5F5F5"/>
<path d="M148.181 76.68V31.4742L104.798 31.4742V76.68H148.181Z" fill="white"/>
<path d="M127.691 76.68V31.4742H125.287V76.68H127.691Z" fill="#F5F5F5"/>
<path d="M105.704 76.6799V31.4741H104.794V76.6799H105.704Z" fill="#E6E6E6"/>
<path d="M128.601 76.6799V31.4741H127.691V76.6799H128.601Z" fill="#E6E6E6"/>
<path d="M110.253 80.1916C109.375 71.1009 108.763 56.3533 109.237 51.4185C109.247 51.3344 109.274 51.2533 109.317 51.1801C109.359 51.107 109.417 51.0436 109.485 50.9937C109.576 50.9267 109.685 50.8867 109.798 50.8783C109.911 50.8699 110.024 50.8934 110.124 50.9462C110.225 50.9989 110.308 51.0788 110.365 51.1767C110.423 51.2746 110.451 51.3866 110.448 51.4999C110.366 53.9461 110.271 60.0561 110.802 70.5947C111.06 75.841 111.432 79.4447 111.177 80.1916H110.253Z" fill="#E6E6E6"/>
<path d="M106.982 59.2419C104.483 56.4665 99.3818 54.4948 94.185 54.5054C92.1425 54.5054 100.394 57.7303 103.824 61.288C106.49 64.0492 109.488 68.6972 110.519 71.2779C109.846 65.844 109.492 62.0137 106.982 59.2419Z" fill="#E6E6E6"/>
<path d="M111.935 60.088C114.009 57.1993 118.795 54.9762 123.971 54.7248C126.003 54.6257 118.264 58.2649 115.375 61.9677C113.135 64.8528 110.834 69.6353 110.2 72.2549C110.055 66.814 109.846 62.9766 111.935 60.088Z" fill="#E6E6E6"/>
<path d="M106.872 49.114C104.748 46.7634 100.437 45.0925 96.0329 45.1031C94.3054 45.1031 101.29 47.836 104.196 50.845C106.455 53.185 109 57.1214 109.86 59.3056C109.304 54.7107 108.986 51.461 106.872 49.114Z" fill="#E6E6E6"/>
<path d="M111.064 52.5867C112.834 50.1406 116.873 48.2573 121.262 48.0449C122.983 47.9635 116.43 51.0326 113.984 54.1797C112.087 56.6223 110.136 60.6721 109.602 62.8916C109.492 58.2826 109.308 55.0328 111.064 52.5867Z" fill="#E6E6E6"/>
<path d="M110.604 90.1036C109.285 90.1039 108.017 89.5999 107.059 88.6948C106.1 87.7897 105.524 86.5522 105.449 85.2361L104.993 77.3348H116.218L115.761 85.2361C115.686 86.5528 115.11 87.7908 114.151 88.696C113.192 89.6012 111.922 90.1049 110.604 90.1036Z" fill="#E6E6E6"/>
<path d="M116.944 79.1296H104.267L103.902 75.841H117.305L116.944 79.1296Z" fill="#E6E6E6"/>
<path d="M92.5 151.356C130.407 151.356 161.137 149.562 161.137 147.349C161.137 145.136 130.407 143.342 92.5 143.342C54.5928 143.342 23.8629 145.136 23.8629 147.349C23.8629 149.562 54.5928 151.356 92.5 151.356Z" fill="#F5F5F5"/>
<path d="M22.5142 40.1896C22.5161 39.6006 22.7509 39.0362 23.1674 38.6197C23.5839 38.2032 24.1483 37.9684 24.7373 37.9665H123.935C124.524 37.9684 125.089 38.2032 125.505 38.6197C125.922 39.0362 126.156 39.6006 126.158 40.1896V47.344H22.5142V40.1896Z" fill="#263238"/>
<path d="M40.4868 44.5297C40.1157 44.5297 39.7529 44.4196 39.4444 44.2135C39.1359 44.0073 38.8954 43.7143 38.7534 43.3714C38.6114 43.0286 38.5742 42.6514 38.6466 42.2874C38.719 41.9235 38.8977 41.5892 39.1601 41.3268C39.4225 41.0644 39.7568 40.8857 40.1207 40.8133C40.4847 40.7409 40.8619 40.7781 41.2048 40.9201C41.5476 41.0621 41.8406 41.3026 42.0468 41.6111C42.2529 41.9196 42.363 42.2824 42.363 42.6535C42.363 43.1511 42.1653 43.6283 41.8134 43.9801C41.4616 44.332 40.9844 44.5297 40.4868 44.5297ZM40.4868 41.1702C40.1934 41.1702 39.9066 41.2572 39.6627 41.4202C39.4188 41.5832 39.2287 41.8148 39.1164 42.0858C39.0041 42.3569 38.9748 42.6551 39.032 42.9428C39.0892 43.2305 39.2305 43.4948 39.4379 43.7023C39.6454 43.9097 39.9097 44.051 40.1974 44.1082C40.4851 44.1654 40.7834 44.1361 41.0544 44.0238C41.3254 43.9115 41.5571 43.7214 41.7201 43.4775C41.883 43.2336 41.97 42.9468 41.97 42.6535C41.9691 42.2604 41.8125 41.8836 41.5346 41.6057C41.2566 41.3277 40.8799 41.1711 40.4868 41.1702Z" fill="#F0F0F0"/>
<path d="M34.529 44.5297C34.158 44.529 33.7957 44.4183 33.4876 44.2117C33.1795 44.0052 32.9396 43.7119 32.7981 43.369C32.6567 43.0261 32.62 42.649 32.6928 42.2853C32.7656 41.9215 32.9446 41.5876 33.2071 41.3255C33.4696 41.0635 33.8039 40.8852 34.1678 40.813C34.5316 40.7409 34.9087 40.7783 35.2513 40.9204C35.5939 41.0625 35.8868 41.303 36.0928 41.6115C36.2988 41.9199 36.4087 42.2825 36.4087 42.6535C36.4087 42.9001 36.3601 43.1444 36.2656 43.3723C36.171 43.6001 36.0325 43.8071 35.8579 43.9814C35.6833 44.1556 35.4761 44.2938 35.248 44.3879C35.02 44.4819 34.7757 44.5301 34.529 44.5297ZM34.529 41.1702C34.2358 41.1709 33.9493 41.2585 33.7059 41.4219C33.4624 41.5853 33.2729 41.8172 33.1611 42.0883C33.0494 42.3594 33.0206 42.6575 33.0782 42.945C33.1358 43.2325 33.2774 43.4964 33.4849 43.7035C33.6925 43.9106 33.9568 44.0515 34.2444 44.1085C34.5321 44.1654 34.8301 44.1358 35.1009 44.0235C35.3718 43.9111 35.6032 43.721 35.766 43.4771C35.9289 43.2333 36.0158 42.9467 36.0158 42.6535C36.0148 42.2597 35.8578 41.8825 35.579 41.6044C35.3003 41.3263 34.9227 41.1702 34.529 41.1702Z" fill="#F0F0F0"/>
<path d="M28.5747 44.5297C28.2038 44.529 27.8414 44.4183 27.5333 44.2117C27.2252 44.0052 26.9853 43.7119 26.8438 43.369C26.7024 43.0261 26.6657 42.649 26.7385 42.2853C26.8113 41.9215 26.9903 41.5876 27.2528 41.3255C27.5153 41.0635 27.8496 40.8852 28.2135 40.813C28.5773 40.7409 28.9544 40.7783 29.297 40.9204C29.6397 41.0625 29.9325 41.303 30.1385 41.6115C30.3445 41.9199 30.4544 42.2825 30.4544 42.6535C30.4544 42.9001 30.4058 43.1444 30.3113 43.3723C30.2168 43.6001 30.0782 43.8071 29.9036 43.9814C29.7291 44.1556 29.5218 44.2938 29.2938 44.3879C29.0657 44.4819 28.8214 44.5301 28.5747 44.5297ZM28.5747 41.1702C28.2813 41.1702 27.9946 41.2572 27.7506 41.4202C27.5067 41.5831 27.3166 41.8148 27.2043 42.0858C27.0921 42.3569 27.0627 42.6551 27.1199 42.9428C27.1772 43.2305 27.3184 43.4948 27.5259 43.7023C27.7333 43.9097 27.9976 44.051 28.2853 44.1082C28.573 44.1654 28.8713 44.1361 29.1423 44.0238C29.4133 43.9115 29.645 43.7214 29.808 43.4775C29.971 43.2336 30.0579 42.9468 30.0579 42.6535C30.057 42.2604 29.9004 41.8836 29.6225 41.6057C29.3445 41.3277 28.9678 41.1711 28.5747 41.1702Z" fill="#F0F0F0"/>
<path d="M123.935 115.606H24.7373C24.1483 115.604 23.5839 115.369 23.1674 114.953C22.7509 114.536 22.5161 113.972 22.5142 113.383V47.344H126.158V113.383C126.156 113.972 125.922 114.536 125.505 114.953C125.089 115.369 124.524 115.604 123.935 115.606Z" fill="#7D3CFF"/>
<path d="M125.528 49.2449H23.1443V107.772H125.528V49.2449Z" fill="white"/>
<path d="M68.5094 54.2611H29.5092C28.7643 54.2611 28.1605 54.865 28.1605 55.6098V60.8172C28.1605 61.5621 28.7643 62.1659 29.5092 62.1659H68.5094C69.2543 62.1659 69.8582 61.5621 69.8582 60.8172V55.6098C69.8582 54.865 69.2543 54.2611 68.5094 54.2611Z" fill="#7D3CFF"/>
<path d="M119.163 54.6151C119.427 54.6151 119.68 54.7199 119.867 54.9065C120.053 55.093 120.158 55.346 120.158 55.6098V60.8172C120.158 61.081 120.053 61.334 119.867 61.5206C119.68 61.7071 119.427 61.8119 119.163 61.8119H80.1631C79.8993 61.8119 79.6463 61.7071 79.4597 61.5206C79.2732 61.334 79.1684 61.081 79.1684 60.8172V55.6098C79.1684 55.346 79.2732 55.093 79.4597 54.9065C79.6463 54.7199 79.8993 54.6151 80.1631 54.6151H119.163ZM119.163 54.2611H80.1631C79.8057 54.262 79.4632 54.4044 79.2104 54.6572C78.9577 54.9099 78.8153 55.2524 78.8144 55.6098V60.8172C78.8144 61.1749 78.9565 61.518 79.2094 61.7709C79.4623 62.0238 79.8054 62.1659 80.1631 62.1659H119.163C119.521 62.1659 119.864 62.0238 120.117 61.7709C120.37 61.518 120.512 61.1749 120.512 60.8172V55.6098C120.511 55.2524 120.369 54.9099 120.116 54.6572C119.863 54.4044 119.521 54.262 119.163 54.2611Z" fill="#7D3CFF"/>
<path d="M35.0918 65.7059C36.3927 65.7059 37.6643 66.0917 38.746 66.8144C39.8276 67.5371 40.6706 68.5644 41.1685 69.7662C41.6663 70.9681 41.7965 72.2905 41.5428 73.5664C41.289 74.8423 40.6625 76.0143 39.7427 76.9341C38.8228 77.854 37.6509 78.4804 36.375 78.7342C35.0991 78.988 33.7766 78.8577 32.5748 78.3599C31.3729 77.8621 30.3457 77.019 29.623 75.9374C28.9002 74.8558 28.5145 73.5841 28.5145 72.2832C28.5164 70.5394 29.2099 68.8675 30.443 67.6344C31.6761 66.4014 33.348 65.7078 35.0918 65.7059ZM35.0918 65.3519C33.7209 65.3519 32.3808 65.7584 31.241 66.5201C30.1011 67.2817 29.2127 68.3642 28.6881 69.6307C28.1635 70.8973 28.0262 72.2909 28.2937 73.6355C28.5611 74.98 29.2213 76.2151 30.1906 77.1844C31.16 78.1538 32.395 78.8139 33.7396 79.0814C35.0841 79.3488 36.4778 79.2116 37.7443 78.687C39.0109 78.1623 40.0934 77.2739 40.855 76.1341C41.6166 74.9942 42.0231 73.6541 42.0231 72.2832C42.0231 70.4449 41.2929 68.6819 39.993 67.3821C38.6931 66.0822 36.9301 65.3519 35.0918 65.3519Z" fill="#7D3CFF"/>
<path opacity="0.4" d="M40.108 75.009C39.6169 75.9144 38.8905 76.6705 38.0054 77.1973C37.1203 77.7241 36.1094 78.0022 35.0794 78.0022C34.0494 78.0022 33.0385 77.7241 32.1534 77.1973C31.2684 76.6705 30.5419 75.9144 30.0508 75.009C31.5392 74.0141 33.2892 73.483 35.0794 73.483C36.8697 73.483 38.6197 74.0141 40.108 75.009Z" fill="#7D3CFF"/>
<path opacity="0.4" d="M35.0918 72.8744C36.4995 72.8744 37.6406 71.7333 37.6406 70.3256C37.6406 68.918 36.4995 67.7768 35.0918 67.7768C33.6841 67.7768 32.543 68.918 32.543 70.3256C32.543 71.7333 33.6841 72.8744 35.0918 72.8744Z" fill="#7D3CFF"/>
<path opacity="0.4" d="M116.947 75.848H49.4819C48.5365 75.848 47.6298 75.4725 46.9612 74.8039C46.2927 74.1354 45.9171 73.2287 45.9171 72.2833C45.9171 71.8153 46.0094 71.3519 46.1886 70.9196C46.3678 70.4873 46.6304 70.0946 46.9615 69.7638C47.2925 69.4331 47.6855 69.1708 48.118 68.9921C48.5505 68.8133 49.014 68.7216 49.4819 68.722H116.947C117.415 68.7216 117.879 68.8133 118.311 68.9921C118.744 69.1708 119.137 69.4331 119.468 69.7638C119.799 70.0946 120.061 70.4873 120.241 70.9196C120.42 71.3519 120.512 71.8153 120.512 72.2833C120.512 73.2287 120.136 74.1354 119.468 74.8039C118.799 75.4725 117.893 75.848 116.947 75.848Z" fill="#7D3CFF"/>
<path d="M35.0918 84.606C36.3927 84.606 37.6643 84.9918 38.746 85.7145C39.8276 86.4372 40.6706 87.4644 41.1685 88.6663C41.6663 89.8681 41.7965 91.1906 41.5428 92.4665C41.289 93.7424 40.6625 94.9143 39.7427 95.8342C38.8228 96.7541 37.6509 97.3805 36.375 97.6343C35.0991 97.8881 33.7766 97.7578 32.5748 97.26C31.3729 96.7622 30.3457 95.9191 29.623 94.8375C28.9002 93.7559 28.5145 92.4842 28.5145 91.1833C28.5154 89.4392 29.2087 87.7668 30.442 86.5335C31.6753 85.3002 33.3477 84.6069 35.0918 84.606ZM35.0918 84.252C33.7209 84.252 32.3808 84.6585 31.241 85.4201C30.1011 86.1818 29.2127 87.2643 28.6881 88.5308C28.1635 89.7974 28.0262 91.191 28.2937 92.5356C28.5611 93.8801 29.2213 95.1152 30.1906 96.0845C31.16 97.0539 32.395 97.714 33.7396 97.9815C35.0841 98.2489 36.4778 98.1117 37.7443 97.587C39.0109 97.0624 40.0934 96.174 40.855 95.0342C41.6166 93.8943 42.0231 92.5542 42.0231 91.1833C42.0231 89.345 41.2929 87.582 39.993 86.2821C38.6931 84.9823 36.9301 84.252 35.0918 84.252Z" fill="#7D3CFF"/>
<path opacity="0.4" d="M40.108 93.8879C39.6169 94.7933 38.8905 95.5493 38.0054 96.0761C37.1203 96.6029 36.1094 96.881 35.0794 96.881C34.0494 96.881 33.0385 96.6029 32.1534 96.0761C31.2684 95.5493 30.5419 94.7933 30.0508 93.8879C31.54 92.8952 33.2897 92.3655 35.0794 92.3655C36.8691 92.3655 38.6188 92.8952 40.108 93.8879Z" fill="#7D3CFF"/>
<path opacity="0.4" d="M35.0918 91.7568C36.4995 91.7568 37.6406 90.6157 37.6406 89.208C37.6406 87.8003 36.4995 86.6592 35.0918 86.6592C33.6841 86.6592 32.543 87.8003 32.543 89.208C32.543 90.6157 33.6841 91.7568 35.0918 91.7568Z" fill="#7D3CFF"/>
<path opacity="0.4" d="M49.4819 87.6008H116.947C117.893 87.6008 118.799 87.9764 119.468 88.6449C120.136 89.3135 120.512 90.2202 120.512 91.1656C120.512 92.111 120.136 93.0178 119.468 93.6863C118.799 94.3548 117.893 94.7304 116.947 94.7304H49.4819C48.5365 94.7304 47.6298 94.3548 46.9612 93.6863C46.2927 93.0178 45.9171 92.111 45.9171 91.1656C45.9171 90.2211 46.2923 89.3153 46.9602 88.6474C47.6281 87.9796 48.5339 87.6044 49.4784 87.6044L49.4819 87.6008Z" fill="#7D3CFF"/>
<path opacity="0.1" d="M100.33 94.6242C100.33 96.7897 100.542 98.95 100.964 101.074C98.9844 102.25 97.3438 103.919 96.2027 105.919C95.0615 107.919 94.459 110.181 94.4541 112.484C94.4469 113.535 94.5658 114.583 94.8081 115.606H123.935C124.524 115.604 125.089 115.369 125.505 114.953C125.922 114.536 126.156 113.972 126.158 113.383V62.4067C118.834 64.0447 112.286 68.1277 107.591 73.9835C102.897 79.8394 100.336 87.119 100.33 94.6242Z" fill="black"/>
<path d="M154.143 116.84C165.644 105.339 165.644 86.6932 154.143 75.1925C142.642 63.6919 123.996 63.6919 112.496 75.1925C100.995 86.6932 100.995 105.339 112.496 116.84C123.996 128.341 142.642 128.341 154.143 116.84Z" fill="#7D3CFF"/>
<path d="M152.441 114.964C162.925 104.479 162.925 87.4802 152.441 76.9957C141.956 66.5111 124.957 66.5111 114.473 76.9957C103.988 87.4802 103.988 104.479 114.473 114.964C124.957 125.448 141.956 125.448 152.441 114.964Z" fill="white"/>
<path d="M124.399 77.9685L122.686 80.1633C122.686 80.1633 121.181 81.3032 120.611 82.2873C119.946 82.9457 119.337 83.6219 118.735 84.3334C118.045 85.147 117.402 85.9992 116.809 86.8858C116.16 87.8339 115.623 88.8544 115.209 89.9266C114.947 90.6053 114.802 91.3235 114.781 92.0506C114.771 92.5649 114.863 93.076 115.05 93.5551C115.284 94.142 115.672 94.6554 116.172 95.0419L116.547 95.3251L117.11 95.4313C118.221 95.6425 119.349 95.7539 120.48 95.7641L120.926 95.7252L120.466 91.2364C120.087 91.2364 119.273 91.3108 118.901 91.3037C118.901 91.2329 118.93 91.1621 118.947 91.0913C119.172 90.2369 119.48 89.4069 119.868 88.6133C120.264 87.7531 120.721 86.8928 121.195 86.0362C121.613 85.2786 122.063 84.5175 122.498 83.7741L124.622 82.436L125.864 80.2306L124.399 77.9685ZM118.873 91.9515C118.87 91.9174 118.87 91.883 118.873 91.8489C118.888 91.8741 118.899 91.9016 118.905 91.9303C118.915 92.0152 118.891 92.0188 118.873 91.9515Z" fill="#7F3E3B"/>
<path d="M136.463 82.7121C136.516 82.4395 134.654 81.505 133.373 82.2661C132.265 82.9245 132.123 83.8237 132.527 84.8963C132.527 84.9706 132.555 85.045 132.566 85.1193C132.59 85.2928 132.612 85.4733 132.622 85.6362C132.704 86.7654 132.406 87.8168 131.136 88.4151C131.136 88.4859 130.962 88.5602 130.905 88.6098C130.435 89.0238 130.135 89.5978 130.063 90.2205C130.063 90.6807 130.498 91.0453 131.005 91.4842L131.713 91.9621L132.683 91.8701C135.66 90.9957 137.051 88.277 136.987 88.0752C136.223 86.815 136.233 84.606 136.463 82.7121Z" fill="#7F3E3B"/>
<path d="M142.899 89.162L142.361 89.07C141.653 88.9567 138.495 88.2416 136.969 88.1071C136.615 88.8611 135.454 90.7019 132.477 91.5763L131.741 91.7497L131.033 91.3957C130.814 91.2379 130.632 91.0348 130.499 90.8002C130.366 90.5657 130.285 90.3051 130.261 90.0364C130.285 89.7599 130.366 89.4914 130.499 89.2478C130.632 89.0041 130.814 88.7905 131.033 88.6204C131.059 88.598 131.079 88.5702 131.093 88.539C131.093 88.454 131.093 88.3974 131.093 88.3903C130.87 88.4186 128.045 88.8469 127.808 88.8859C125.145 89.3779 122.531 90.1041 119.995 91.0559L120.023 91.3108L120.537 95.7676L120.728 97.4562C120.728 97.4562 122.144 97.2969 124.002 96.9712C123.496 101.481 123.397 108.016 124.944 116.416L130.987 116.303L141.487 116.108C141.529 115.4 141.451 113.935 141.377 111.931L141.281 108.837C141.225 106.104 141.235 102.819 141.479 99.3076C141.518 98.7519 141.564 98.1925 141.614 97.6261C143.759 99.9448 145.908 102.161 145.908 102.161L146.924 101.184C148.223 100.557 149.246 99.4351 150.138 98.0863L151.331 96.9358C151.331 96.9358 145.802 89.6505 142.899 89.162Z" fill="#7D3CFF"/>
<path opacity="0.3" d="M139.993 95.8066C140.074 96.5435 140.309 97.2552 140.683 97.8952L141.497 99.2899C141.536 98.7342 141.582 98.1748 141.632 97.6084C141.072 96.996 140.513 96.3907 139.993 95.8066Z" fill="black"/>
<path opacity="0.3" d="M141.635 97.612C141.586 98.1784 141.54 98.7377 141.501 99.2935C141.536 98.7377 141.586 98.1748 141.635 97.612Z" fill="black"/>
<path d="M132.527 84.8963C132.527 84.9706 132.552 85.045 132.566 85.1193C132.566 85.045 132.541 84.9706 132.527 84.8963Z" fill="#7F3E3B"/>
<path opacity="0.2" d="M132.622 85.6362C132.622 85.4662 132.591 85.2822 132.566 85.1193C132.591 85.2928 132.612 85.4662 132.622 85.6362Z" fill="black"/>
<path d="M134.824 84.0573C134.753 84.1069 134.686 84.16 134.612 84.2095C133.992 84.6244 133.271 84.8619 132.527 84.8963C132.527 84.9706 132.552 85.045 132.566 85.1193C132.59 85.2928 132.612 85.4733 132.622 85.6361C132.622 85.6361 132.622 85.6574 132.622 85.668C133.541 85.4439 134.333 84.8647 134.824 84.0573Z" fill="#7F3E3B"/>
<path d="M138.8 88.6452C138.768 88.4997 138.697 88.366 138.593 88.2595C138.489 88.153 138.357 88.0781 138.212 88.0434L137.476 87.8664C137.384 87.8447 137.287 87.8533 137.2 87.8909C137.114 87.9286 137.041 87.9932 136.994 88.0752L136.969 88.1071C136.615 88.8611 135.454 90.7019 132.477 91.5763L132.247 91.6294L131.741 91.7497L131.033 91.3957C130.814 91.238 130.632 91.0349 130.499 90.8003C130.366 90.5657 130.285 90.3051 130.261 90.0364C130.285 89.7599 130.366 89.4915 130.499 89.2478C130.632 89.0041 130.814 88.7905 131.033 88.6204C131.072 88.5806 131.106 88.5367 131.136 88.4894C131.167 88.408 131.16 88.3691 131.104 88.3337C130.321 87.7708 128.573 88.6381 128.502 88.7868C128.427 88.8611 128.353 88.939 128.279 89.0275C128.061 89.2845 127.898 89.5838 127.8 89.9066C127.703 90.2294 127.673 90.5688 127.712 90.9037C127.786 91.4669 127.986 92.0063 128.297 92.4819C128.607 92.9574 129.021 93.3569 129.507 93.6507C129.523 93.6559 129.541 93.6559 129.557 93.6507C129.575 93.656 129.595 93.656 129.613 93.6507C129.629 93.6399 129.641 93.6256 129.65 93.609C129.658 93.5924 129.663 93.5739 129.663 93.5551C129.664 93.1366 129.79 92.7279 130.023 92.3802C130.256 92.0326 130.586 91.7615 130.973 91.6011L131.592 91.9338C128.93 102.858 130.736 115.953 130.785 116.307H130.99C130.99 116.172 129.114 102.964 131.798 91.9798L132.445 91.8241C133.199 92.7445 132.842 94.1109 132.838 94.1251C132.833 94.144 132.834 94.1639 132.839 94.1827C132.845 94.2014 132.856 94.2182 132.87 94.2313C132.89 94.2476 132.915 94.2564 132.941 94.2561C132.954 94.2597 132.967 94.2597 132.98 94.2561C133.122 94.1924 136.47 92.7268 137.642 91.3285C138.195 90.6603 138.586 89.8725 138.782 89.0275C138.821 88.9037 138.827 88.772 138.8 88.6452Z" fill="white"/>
<path opacity="0.2" d="M134.824 84.0573C134.753 84.1069 134.686 84.16 134.612 84.2095C133.992 84.6244 133.271 84.8619 132.527 84.8963C132.527 84.9706 132.552 85.045 132.566 85.1193C132.59 85.2928 132.612 85.4733 132.622 85.6361C132.622 85.6361 132.622 85.6574 132.622 85.668C133.541 85.4439 134.333 84.8647 134.824 84.0573Z" fill="black"/>
<path d="M130.452 76.241C131.836 74.471 130.959 73.409 130.371 73.5081C129.815 73.7701 129.288 74.5099 129.015 76.1667C128.95 76.5574 128.94 76.9555 128.987 77.349C129.557 77.3207 130.452 76.241 130.452 76.241Z" fill="#263238"/>
<path d="M136.254 80.1456C140.088 73.4019 132.516 72.616 130.973 74.1276C130.452 74.6107 130.013 75.1749 129.674 75.7985L129.351 76.4322C129.218 76.7316 129.1 77.0376 128.997 77.349C128.608 78.4683 128.405 79.6438 128.396 80.8288C128.393 81.37 128.499 81.9061 128.707 82.4056C128.915 82.9051 129.222 83.3578 129.608 83.737C129.994 84.1162 130.452 84.4141 130.955 84.6132C131.458 84.8124 131.996 84.9086 132.537 84.8963C133.282 84.8619 134.003 84.6244 134.622 84.2095C134.697 84.16 134.764 84.1069 134.835 84.0573C135.34 83.697 135.772 83.2427 136.106 82.7192C136.892 81.4483 136.686 80.8076 136.254 80.1456Z" fill="#7F3E3B"/>
<path d="M129.157 76.2233C129.133 76.254 129.123 76.2926 129.128 76.331C129.132 76.3693 129.152 76.4043 129.181 76.4286C129.208 76.449 129.24 76.4602 129.274 76.4605C129.302 76.4597 129.329 76.4498 129.351 76.4322C129.365 76.4259 129.378 76.4162 129.387 76.4038C129.5 76.2544 129.646 76.133 129.814 76.0489C129.981 75.9648 130.166 75.9203 130.353 75.9189C130.392 75.9208 130.43 75.9074 130.459 75.8816C130.488 75.8558 130.506 75.8196 130.509 75.7808C130.51 75.7617 130.508 75.7425 130.502 75.7244C130.496 75.7062 130.487 75.6894 130.474 75.6749C130.462 75.6605 130.446 75.6486 130.429 75.64C130.412 75.6315 130.394 75.6264 130.374 75.625C130.128 75.6235 129.885 75.6831 129.666 75.7985C129.469 75.9034 129.296 76.0481 129.157 76.2233Z" fill="#263238"/>
<path d="M132.987 80.4642C132.973 80.451 132.955 80.4436 132.936 80.4436C132.917 80.4436 132.898 80.451 132.884 80.4642C132.642 80.6672 132.357 80.8122 132.05 80.8882C131.743 80.9643 131.423 80.9694 131.114 80.9032C131.096 80.9 131.076 80.9041 131.061 80.9146C131.045 80.9251 131.034 80.9413 131.029 80.9598C131.026 80.979 131.03 80.9987 131.041 81.0151C131.051 81.0314 131.067 81.0433 131.086 81.0483C131.255 81.0818 131.427 81.0973 131.599 81.0943C132.106 81.0896 132.595 80.9038 132.976 80.5704C132.984 80.5642 132.991 80.5565 132.995 80.5478C133 80.5391 133.003 80.5295 133.004 80.5196C133.005 80.5097 133.004 80.4997 133.001 80.4902C132.998 80.4806 132.993 80.4718 132.987 80.4642Z" fill="#263238"/>
<path d="M131.086 77.9366C130.617 78.6227 130.059 79.243 129.426 79.781C129.78 80.2695 130.544 80.2341 130.544 80.2341L131.086 77.9366Z" fill="#630F0F"/>
<path d="M129.833 78.0216C129.992 78.0535 130.187 77.8835 130.226 77.6393C130.265 77.395 130.201 77.1755 130.042 77.1437C129.882 77.1118 129.705 77.2817 129.649 77.526C129.592 77.7703 129.67 77.9897 129.833 78.0216Z" fill="#263238"/>
<path d="M132.601 78.588C132.76 78.6199 132.934 78.45 132.994 78.2057C133.054 77.9614 132.966 77.742 132.806 77.7101C132.647 77.6782 132.47 77.8482 132.413 78.0924C132.357 78.3367 132.438 78.542 132.601 78.588Z" fill="#263238"/>
<path d="M138.679 74.7294C140.177 73.4479 136.764 70.8354 136.764 70.8354C136.764 70.8354 137.146 71.77 136.354 72.0284C135.561 72.2868 129.982 70.2053 130.063 72.5665C130.078 72.8992 130.185 73.2213 130.371 73.4975C130.537 73.7351 130.74 73.9442 130.973 74.117C132.268 75.1011 134.626 75.402 135.9 75.402C135.698 75.8951 135.557 76.411 135.479 76.9384C135.381 77.4942 135.4 78.0642 135.533 78.6125C135.667 79.1608 135.912 79.6756 136.254 80.1244C136.962 81.3563 137.908 81.3209 138.715 80.3828C140.01 79.158 141.26 76.6764 138.679 74.7294Z" fill="#263238"/>
<path d="M138.028 79.6748C137.44 79.4341 136.778 79.7173 136.258 80.1456C135.972 80.3727 135.725 80.644 135.525 80.9492C135.026 81.7316 135.203 82.6413 136.099 82.7192H136.254H136.467C137.172 82.6474 137.831 82.3349 138.332 81.8342C138.518 81.6548 138.652 81.4286 138.72 81.1793C138.788 80.9301 138.787 80.6671 138.718 80.4182C138.668 80.2498 138.579 80.0952 138.459 79.9663C138.34 79.8374 138.192 79.7377 138.028 79.6748Z" fill="#7F3E3B"/>
<path d="M124.962 116.399C124.962 116.399 124.866 117.227 124.718 118.618C130.139 120.452 136.004 120.506 141.458 118.774C141.494 117.093 141.518 116.087 141.518 116.087L131.005 116.285H130.799L124.962 116.399Z" fill="#263238"/>
<path d="M152.326 102.143C152.296 101.842 152.227 101.545 152.121 101.262C152.07 101.121 152.01 100.984 151.94 100.851L151.837 100.66L151.781 100.561C151.275 99.69 150.719 98.8651 150.152 98.0828L146.938 101.18C147.363 101.711 147.777 102.242 148.159 102.787C148.089 102.968 147.997 103.141 147.887 103.301C147.372 104.016 146.778 104.67 146.117 105.251C144.731 106.5 143.278 107.673 141.766 108.767L141.274 108.83L139.299 109.099L137.355 110.413L138.633 113.011L140.24 112.19C140.624 112.137 141.002 112.048 141.37 111.924C141.938 111.776 142.432 111.426 142.761 110.94C143.701 110.568 144.622 110.147 145.519 109.68C146.483 109.182 147.417 108.628 148.315 108.02C148.771 107.708 149.221 107.367 149.667 106.997C150.141 106.608 150.579 106.178 150.977 105.711C151.487 105.136 151.879 104.466 152.131 103.74C152.31 103.228 152.376 102.683 152.326 102.143ZM148.188 102.702C148.188 102.685 148.188 102.664 148.188 102.649C148.188 102.564 148.22 102.533 148.22 102.582C148.218 102.623 148.21 102.664 148.195 102.702H148.188Z" fill="#7F3E3B"/>
<path d="M117.31 112.609C118.17 107.312 114.572 102.32 109.275 101.46C103.978 100.6 98.9861 104.198 98.1262 109.495C97.2663 114.792 100.864 119.784 106.161 120.644C111.458 121.504 116.45 117.906 117.31 112.609Z" fill="#263238"/>
<path d="M113.053 110.136H108.621V105.704C108.621 105.463 108.525 105.232 108.355 105.061C108.184 104.89 107.953 104.795 107.711 104.795C107.47 104.795 107.239 104.89 107.068 105.061C106.897 105.232 106.802 105.463 106.802 105.704V110.136H102.369C102.128 110.136 101.897 110.232 101.726 110.403C101.556 110.574 101.46 110.805 101.46 111.046C101.46 111.288 101.556 111.519 101.726 111.69C101.897 111.86 102.128 111.956 102.369 111.956H106.802V116.388C106.802 116.508 106.825 116.626 106.871 116.736C106.917 116.847 106.984 116.947 107.068 117.031C107.153 117.116 107.253 117.183 107.363 117.229C107.474 117.274 107.592 117.298 107.711 117.298C107.831 117.298 107.949 117.274 108.06 117.229C108.17 117.183 108.27 117.116 108.355 117.031C108.439 116.947 108.506 116.847 108.552 116.736C108.598 116.626 108.621 116.508 108.621 116.388V111.956H113.053C113.294 111.956 113.526 111.86 113.697 111.69C113.867 111.519 113.963 111.288 113.963 111.046C113.963 110.805 113.867 110.574 113.697 110.403C113.526 110.232 113.294 110.136 113.053 110.136Z" fill="white"/>
<path d="M133.129 76.733C133.306 76.7691 133.473 76.8479 133.613 76.9626C133.754 77.0773 133.865 77.2245 133.936 77.3915C133.948 77.4169 133.967 77.4384 133.991 77.4535C134.014 77.4685 134.042 77.4765 134.07 77.4764C134.09 77.4814 134.111 77.4814 134.13 77.4764C134.148 77.4684 134.164 77.457 134.177 77.4429C134.19 77.4287 134.2 77.4121 134.207 77.3939C134.213 77.3758 134.216 77.3566 134.215 77.3373C134.214 77.318 134.21 77.2991 134.201 77.2817C134.109 77.0705 133.967 76.885 133.787 76.7413C133.606 76.5975 133.394 76.4999 133.168 76.4569C133.129 76.4518 133.09 76.4621 133.059 76.4857C133.028 76.5092 133.008 76.5441 133.003 76.5826C132.998 76.6211 133.008 76.6601 133.032 76.6909C133.055 76.7218 133.09 76.742 133.129 76.7472V76.733Z" fill="#263238"/>
</g>
<defs>
<filter id="filter0_d_2_2" x="0" y="0" width="185" height="185" filterUnits="userSpaceOnUse" color-interpolation-filters="sRGB">
<feFlood flood-opacity="0" result="BackgroundImageFix"/>
<feColorMatrix in="SourceAlpha" type="matrix" values="0 0 0 0 0 0 0 0 0 0 0 0 0 0 0 0 0 0 127 0" result="hardAlpha"/>
<feOffset dy="4"/>
<feGaussianBlur stdDeviation="2"/>
<feColorMatrix type="matrix" values="0 0 0 0 0 0 0 0 0 0 0 0 0 0 0 0 0 0 0.25 0"/>
<feBlend mode="normal" in2="BackgroundImageFix" result="effect1_dropShadow_2_2"/>
<feBlend mode="normal" in="SourceGraphic" in2="effect1_dropShadow_2_2" result="shape"/>
</filter>
</defs>
</svg>
